<mxfile host="app.diagrams.net" modified="2024-05-14T08:28:59.847Z" agent="Mozilla/5.0 (Windows NT 10.0; Win64; x64; rv:125.0) Gecko/20100101 Firefox/125.0" etag="VqC68w5B80VUFAbtuDjc" version="24.0.7" type="device">
  <diagram name="Page-1" id="PvpZyG1pmq1mP6NhpMr_">
    <mxGraphModel dx="4200" dy="2120" grid="1" gridSize="10" guides="1" tooltips="1" connect="1" arrows="1" fold="1" page="1" pageScale="1" pageWidth="827" pageHeight="1169" math="0" shadow="0">
      <root>
        <mxCell id="0" />
        <mxCell id="1" parent="0" />
        <mxCell id="4IGu5WWSZYh_7H1Q3Tkf-10" value="" style="rounded=1;whiteSpace=wrap;html=1;fillColor=#ffff88;strokeColor=#36393d;strokeWidth=3;" vertex="1" parent="1">
          <mxGeometry x="1470" y="592" width="780" height="608" as="geometry" />
        </mxCell>
        <mxCell id="4IGu5WWSZYh_7H1Q3Tkf-11" style="edgeStyle=orthogonalEdgeStyle;rounded=0;orthogonalLoop=1;jettySize=auto;html=1;strokeWidth=3;strokeColor=#0000FF;" edge="1" parent="1" source="4IGu5WWSZYh_7H1Q3Tkf-12" target="4IGu5WWSZYh_7H1Q3Tkf-14">
          <mxGeometry relative="1" as="geometry" />
        </mxCell>
        <mxCell id="4IGu5WWSZYh_7H1Q3Tkf-12" value="" style="sketch=0;outlineConnect=0;fontColor=#232F3E;gradientColor=none;fillColor=#3F8624;strokeColor=none;dashed=0;verticalLabelPosition=bottom;verticalAlign=top;align=center;html=1;fontSize=12;fontStyle=0;aspect=fixed;pointerEvents=1;shape=mxgraph.aws4.iot_thing_temperature_sensor;" vertex="1" parent="1">
          <mxGeometry x="745" y="725" width="70" height="70" as="geometry" />
        </mxCell>
        <mxCell id="4IGu5WWSZYh_7H1Q3Tkf-13" style="edgeStyle=orthogonalEdgeStyle;rounded=1;orthogonalLoop=1;jettySize=auto;html=1;exitX=1;exitY=0.5;exitDx=0;exitDy=0;entryX=0;entryY=0.5;entryDx=0;entryDy=0;entryPerimeter=0;strokeColor=#0000FF;strokeWidth=3;" edge="1" parent="1" source="4IGu5WWSZYh_7H1Q3Tkf-14" target="4IGu5WWSZYh_7H1Q3Tkf-15">
          <mxGeometry relative="1" as="geometry" />
        </mxCell>
        <mxCell id="4IGu5WWSZYh_7H1Q3Tkf-14" value="&lt;font style=&quot;font-size: 20px;&quot;&gt;Raspberry Pi PicoW&lt;br&gt;Development Board&lt;/font&gt;" style="rounded=1;whiteSpace=wrap;html=1;fillColor=#cdeb8b;strokeColor=#36393d;strokeWidth=3;" vertex="1" parent="1">
          <mxGeometry x="640" y="535" width="280" height="80" as="geometry" />
        </mxCell>
        <mxCell id="4IGu5WWSZYh_7H1Q3Tkf-15" value="" style="sketch=0;aspect=fixed;pointerEvents=1;shadow=0;dashed=0;html=1;strokeColor=none;labelPosition=center;verticalLabelPosition=bottom;verticalAlign=top;align=center;fillColor=#0000FF;shape=mxgraph.mscae.enterprise.wireless_connection;direction=north;" vertex="1" parent="1">
          <mxGeometry x="950" y="455" width="50" height="42" as="geometry" />
        </mxCell>
        <mxCell id="4IGu5WWSZYh_7H1Q3Tkf-16" style="edgeStyle=orthogonalEdgeStyle;rounded=1;orthogonalLoop=1;jettySize=auto;html=1;exitX=0;exitY=0.5;exitDx=0;exitDy=0;exitPerimeter=0;entryX=0;entryY=0.5;entryDx=0;entryDy=0;strokeWidth=3;strokeColor=#0000FF;" edge="1" parent="1" source="4IGu5WWSZYh_7H1Q3Tkf-17" target="4IGu5WWSZYh_7H1Q3Tkf-10">
          <mxGeometry relative="1" as="geometry">
            <Array as="points">
              <mxPoint x="1395" y="896" />
            </Array>
          </mxGeometry>
        </mxCell>
        <mxCell id="4IGu5WWSZYh_7H1Q3Tkf-17" value="" style="sketch=0;aspect=fixed;pointerEvents=1;shadow=0;dashed=0;html=1;strokeColor=none;labelPosition=center;verticalLabelPosition=bottom;verticalAlign=top;align=center;fillColor=#0000FF;shape=mxgraph.mscae.enterprise.wireless_connection;direction=north;" vertex="1" parent="1">
          <mxGeometry x="1370" y="550" width="50" height="42" as="geometry" />
        </mxCell>
        <mxCell id="4IGu5WWSZYh_7H1Q3Tkf-18" style="edgeStyle=orthogonalEdgeStyle;rounded=0;orthogonalLoop=1;jettySize=auto;html=1;exitX=0.5;exitY=1;exitDx=0;exitDy=0;entryX=0.5;entryY=0;entryDx=0;entryDy=0;strokeWidth=3;strokeColor=#0000FF;" edge="1" parent="1" source="4IGu5WWSZYh_7H1Q3Tkf-19" target="4IGu5WWSZYh_7H1Q3Tkf-21">
          <mxGeometry relative="1" as="geometry" />
        </mxCell>
        <mxCell id="4IGu5WWSZYh_7H1Q3Tkf-19" value="&lt;font style=&quot;font-size: 20px;&quot;&gt;Mosquitto &lt;br&gt;MQTT Broker&lt;/font&gt;" style="rounded=1;whiteSpace=wrap;html=1;fillColor=#f8cecc;strokeColor=#b85450;strokeWidth=2;" vertex="1" parent="1">
          <mxGeometry x="1509" y="620" width="250" height="90" as="geometry" />
        </mxCell>
        <mxCell id="4IGu5WWSZYh_7H1Q3Tkf-20" style="edgeStyle=orthogonalEdgeStyle;rounded=0;orthogonalLoop=1;jettySize=auto;html=1;exitX=0.5;exitY=1;exitDx=0;exitDy=0;strokeWidth=3;strokeColor=#0000FF;" edge="1" parent="1" source="4IGu5WWSZYh_7H1Q3Tkf-21" target="4IGu5WWSZYh_7H1Q3Tkf-23">
          <mxGeometry relative="1" as="geometry" />
        </mxCell>
        <mxCell id="4IGu5WWSZYh_7H1Q3Tkf-21" value="&lt;font style=&quot;font-size: 20px;&quot;&gt;MQTT Client&lt;/font&gt;&lt;div align=&quot;left&quot;&gt;&lt;ul&gt;&lt;li&gt;&lt;font style=&quot;font-size: 20px;&quot;&gt;Node-Red&lt;/font&gt;&lt;/li&gt;&lt;li&gt;&lt;font style=&quot;font-size: 20px;&quot;&gt;Python&lt;/font&gt;&lt;/li&gt;&lt;/ul&gt;&lt;/div&gt;" style="rounded=1;whiteSpace=wrap;html=1;fillColor=#dae8fc;strokeColor=#6c8ebf;strokeWidth=2;" vertex="1" parent="1">
          <mxGeometry x="1509" y="760" width="251" height="110" as="geometry" />
        </mxCell>
        <mxCell id="4IGu5WWSZYh_7H1Q3Tkf-22" style="edgeStyle=orthogonalEdgeStyle;rounded=0;orthogonalLoop=1;jettySize=auto;html=1;strokeWidth=3;strokeColor=#0000FF;" edge="1" parent="1" source="4IGu5WWSZYh_7H1Q3Tkf-23" target="4IGu5WWSZYh_7H1Q3Tkf-31">
          <mxGeometry relative="1" as="geometry" />
        </mxCell>
        <mxCell id="4IGu5WWSZYh_7H1Q3Tkf-23" value="&lt;div style=&quot;text-align: center;&quot;&gt;&lt;span style=&quot;font-size: 20px; background-color: initial;&quot;&gt;Sensor Data&amp;nbsp;&lt;/span&gt;&lt;span style=&quot;background-color: initial; font-size: 20px;&quot;&gt;Logging System&lt;/span&gt;&lt;/div&gt;&lt;font style=&quot;font-size: 20px;&quot;&gt;&lt;ul&gt;&lt;li&gt;&lt;font style=&quot;font-size: 20px;&quot;&gt;CSV&lt;/font&gt;&lt;/li&gt;&lt;li&gt;&lt;font style=&quot;font-size: 20px;&quot;&gt;Influx DB&lt;/font&gt;&lt;/li&gt;&lt;/ul&gt;&lt;/font&gt;" style="rounded=1;whiteSpace=wrap;html=1;fillColor=#ffe6cc;strokeColor=#d79b00;strokeWidth=2;align=left;" vertex="1" parent="1">
          <mxGeometry x="1509" y="930" width="251" height="190" as="geometry" />
        </mxCell>
        <mxCell id="4IGu5WWSZYh_7H1Q3Tkf-24" value="&lt;font style=&quot;font-size: 24px;&quot;&gt;Raspberry Pi400&amp;nbsp;&lt;span style=&quot;&quot;&gt;SBC&lt;/span&gt;&lt;/font&gt;" style="text;html=1;align=center;verticalAlign=middle;resizable=0;points=[];autosize=1;strokeColor=#36393d;fillColor=#ffff88;" vertex="1" parent="1">
          <mxGeometry x="1770" y="510" width="260" height="40" as="geometry" />
        </mxCell>
        <mxCell id="4IGu5WWSZYh_7H1Q3Tkf-25" value="&lt;font style=&quot;font-size: 24px;&quot;&gt;Measurement&amp;nbsp; System Architecture &lt;br&gt;Phase 1, Prototype 2&lt;br&gt;&lt;/font&gt;" style="text;html=1;align=center;verticalAlign=middle;resizable=0;points=[];autosize=1;strokeColor=#36393d;fillColor=#cce5ff;" vertex="1" parent="1">
          <mxGeometry x="1010" y="260" width="400" height="70" as="geometry" />
        </mxCell>
        <mxCell id="4IGu5WWSZYh_7H1Q3Tkf-26" style="edgeStyle=orthogonalEdgeStyle;rounded=0;orthogonalLoop=1;jettySize=auto;html=1;exitX=1;exitY=0.5;exitDx=0;exitDy=0;entryX=0;entryY=0.5;entryDx=0;entryDy=0;strokeColor=#FF0000;strokeWidth=3;" edge="1" parent="1" source="4IGu5WWSZYh_7H1Q3Tkf-27" target="4IGu5WWSZYh_7H1Q3Tkf-14">
          <mxGeometry relative="1" as="geometry" />
        </mxCell>
        <mxCell id="4IGu5WWSZYh_7H1Q3Tkf-27" value="&lt;font style=&quot;font-size: 20px;&quot;&gt;Power Supply&lt;/font&gt;" style="rounded=1;whiteSpace=wrap;html=1;fillColor=#fad9d5;strokeColor=#ae4132;strokeWidth=3;" vertex="1" parent="1">
          <mxGeometry x="300" y="535" width="210" height="80" as="geometry" />
        </mxCell>
        <mxCell id="4IGu5WWSZYh_7H1Q3Tkf-28" value="&lt;span style=&quot;font-size: 24px;&quot;&gt;Sensor Node 01&lt;br&gt;&lt;/span&gt;" style="text;html=1;align=center;verticalAlign=middle;resizable=0;points=[];autosize=1;strokeColor=#36393d;fillColor=#cdeb8b;" vertex="1" parent="1">
          <mxGeometry x="475" y="400" width="200" height="40" as="geometry" />
        </mxCell>
        <mxCell id="4IGu5WWSZYh_7H1Q3Tkf-29" value="&lt;font style=&quot;font-size: 20px;&quot;&gt;Sensor Data&lt;br&gt;Visualisation System&lt;br&gt;&lt;ul&gt;&lt;li style=&quot;text-align: left;&quot;&gt;&lt;font style=&quot;font-size: 20px;&quot;&gt;Grafana &lt;br&gt;&lt;/font&gt;&lt;/li&gt;&lt;li style=&quot;text-align: left;&quot;&gt;&lt;font style=&quot;font-size: 20px;&quot;&gt;&lt;font style=&quot;font-size: 20px;&quot;&gt;Python Scripts&lt;/font&gt;&lt;/font&gt;&lt;/li&gt;&lt;/ul&gt;&lt;/font&gt;" style="rounded=1;whiteSpace=wrap;html=1;fillColor=#fff2cc;strokeColor=#d6b656;strokeWidth=2;" vertex="1" parent="1">
          <mxGeometry x="1920" y="724" width="260" height="160" as="geometry" />
        </mxCell>
        <mxCell id="4IGu5WWSZYh_7H1Q3Tkf-30" style="edgeStyle=orthogonalEdgeStyle;rounded=0;orthogonalLoop=1;jettySize=auto;html=1;exitX=0.5;exitY=0;exitDx=0;exitDy=0;entryX=0.5;entryY=1;entryDx=0;entryDy=0;strokeWidth=3;strokeColor=#0000FF;" edge="1" parent="1" source="4IGu5WWSZYh_7H1Q3Tkf-31" target="4IGu5WWSZYh_7H1Q3Tkf-29">
          <mxGeometry relative="1" as="geometry" />
        </mxCell>
        <mxCell id="4IGu5WWSZYh_7H1Q3Tkf-31" value="&lt;font style=&quot;font-size: 20px;&quot;&gt;Sensor Data&lt;br&gt;Analysis System&lt;br&gt;(Python back-end)&lt;br&gt;&lt;/font&gt;" style="rounded=1;whiteSpace=wrap;html=1;fillColor=#b1ddf0;strokeColor=#10739e;strokeWidth=2;" vertex="1" parent="1">
          <mxGeometry x="1920" y="980" width="260" height="90" as="geometry" />
        </mxCell>
        <mxCell id="4IGu5WWSZYh_7H1Q3Tkf-32" value="&lt;font style=&quot;font-size: 20px;&quot;&gt;I2C&lt;/font&gt;" style="text;html=1;align=center;verticalAlign=middle;resizable=0;points=[];autosize=1;strokeColor=none;fillColor=none;" vertex="1" parent="1">
          <mxGeometry x="790" y="655" width="50" height="40" as="geometry" />
        </mxCell>
        <mxCell id="4IGu5WWSZYh_7H1Q3Tkf-33" value="&lt;font style=&quot;font-size: 20px;&quot;&gt;5V&lt;/font&gt;" style="text;html=1;align=center;verticalAlign=middle;resizable=0;points=[];autosize=1;strokeColor=none;fillColor=none;" vertex="1" parent="1">
          <mxGeometry x="550" y="525" width="50" height="40" as="geometry" />
        </mxCell>
        <mxCell id="4IGu5WWSZYh_7H1Q3Tkf-34" value="&lt;font style=&quot;font-size: 20px;&quot;&gt;BOSCH BMP280&lt;br&gt;Temperature-Pressure &lt;br&gt;Sensor&lt;/font&gt;" style="text;html=1;align=center;verticalAlign=middle;resizable=0;points=[];autosize=1;strokeColor=none;fillColor=none;" vertex="1" parent="1">
          <mxGeometry x="490" y="725" width="220" height="90" as="geometry" />
        </mxCell>
        <mxCell id="4IGu5WWSZYh_7H1Q3Tkf-37" style="edgeStyle=orthogonalEdgeStyle;rounded=1;orthogonalLoop=1;jettySize=auto;html=1;exitX=1;exitY=0.5;exitDx=0;exitDy=0;entryX=0;entryY=0.5;entryDx=0;entryDy=0;entryPerimeter=0;strokeColor=#0000FF;strokeWidth=3;" edge="1" source="4IGu5WWSZYh_7H1Q3Tkf-38" target="4IGu5WWSZYh_7H1Q3Tkf-39" parent="1">
          <mxGeometry relative="1" as="geometry" />
        </mxCell>
        <mxCell id="4IGu5WWSZYh_7H1Q3Tkf-72" style="edgeStyle=orthogonalEdgeStyle;rounded=0;orthogonalLoop=1;jettySize=auto;html=1;exitX=0.75;exitY=1;exitDx=0;exitDy=0;entryX=0;entryY=0.5;entryDx=0;entryDy=0;strokeWidth=2;strokeColor=#FF0000;" edge="1" parent="1" source="4IGu5WWSZYh_7H1Q3Tkf-38" target="4IGu5WWSZYh_7H1Q3Tkf-71">
          <mxGeometry relative="1" as="geometry" />
        </mxCell>
        <mxCell id="4IGu5WWSZYh_7H1Q3Tkf-38" value="&lt;font style=&quot;font-size: 20px;&quot;&gt;Raspberry Pi PicoW&lt;br&gt;Development Board&lt;/font&gt;" style="rounded=1;whiteSpace=wrap;html=1;fillColor=#FFB570;strokeColor=#36393d;strokeWidth=3;" vertex="1" parent="1">
          <mxGeometry x="640" y="1120" width="280" height="80" as="geometry" />
        </mxCell>
        <mxCell id="4IGu5WWSZYh_7H1Q3Tkf-39" value="" style="sketch=0;aspect=fixed;pointerEvents=1;shadow=0;dashed=0;html=1;strokeColor=none;labelPosition=center;verticalLabelPosition=bottom;verticalAlign=top;align=center;fillColor=#0000FF;shape=mxgraph.mscae.enterprise.wireless_connection;direction=north;" vertex="1" parent="1">
          <mxGeometry x="950" y="1040" width="50" height="42" as="geometry" />
        </mxCell>
        <mxCell id="4IGu5WWSZYh_7H1Q3Tkf-40" style="edgeStyle=orthogonalEdgeStyle;rounded=0;orthogonalLoop=1;jettySize=auto;html=1;exitX=1;exitY=0.5;exitDx=0;exitDy=0;entryX=0;entryY=0.5;entryDx=0;entryDy=0;strokeColor=#FF0000;strokeWidth=3;" edge="1" source="4IGu5WWSZYh_7H1Q3Tkf-41" target="4IGu5WWSZYh_7H1Q3Tkf-38" parent="1">
          <mxGeometry relative="1" as="geometry" />
        </mxCell>
        <mxCell id="4IGu5WWSZYh_7H1Q3Tkf-41" value="&lt;font style=&quot;font-size: 20px;&quot;&gt;Power Supply&lt;/font&gt;" style="rounded=1;whiteSpace=wrap;html=1;fillColor=#fad9d5;strokeColor=#ae4132;strokeWidth=3;" vertex="1" parent="1">
          <mxGeometry x="300" y="1120" width="210" height="80" as="geometry" />
        </mxCell>
        <mxCell id="4IGu5WWSZYh_7H1Q3Tkf-42" value="&lt;span style=&quot;font-size: 24px;&quot;&gt;Sensor Node 02&lt;br&gt;&lt;/span&gt;" style="text;html=1;align=center;verticalAlign=middle;resizable=0;points=[];autosize=1;strokeColor=#36393d;fillColor=#FFB570;" vertex="1" parent="1">
          <mxGeometry x="475" y="1000" width="200" height="40" as="geometry" />
        </mxCell>
        <mxCell id="4IGu5WWSZYh_7H1Q3Tkf-43" value="&lt;font style=&quot;font-size: 20px;&quot;&gt;ADC&lt;/font&gt;" style="text;html=1;align=center;verticalAlign=middle;resizable=0;points=[];autosize=1;strokeColor=none;fillColor=none;" vertex="1" parent="1">
          <mxGeometry x="640" y="1250" width="70" height="40" as="geometry" />
        </mxCell>
        <mxCell id="4IGu5WWSZYh_7H1Q3Tkf-44" value="&lt;font style=&quot;font-size: 20px;&quot;&gt;5V&lt;/font&gt;" style="text;html=1;align=center;verticalAlign=middle;resizable=0;points=[];autosize=1;strokeColor=none;fillColor=none;" vertex="1" parent="1">
          <mxGeometry x="550" y="1110" width="50" height="40" as="geometry" />
        </mxCell>
        <mxCell id="4IGu5WWSZYh_7H1Q3Tkf-45" value="&lt;font style=&quot;font-size: 20px;&quot;&gt;LDR Sensor&lt;br&gt;&lt;/font&gt;" style="text;html=1;align=center;verticalAlign=middle;resizable=0;points=[];autosize=1;strokeColor=none;fillColor=none;" vertex="1" parent="1">
          <mxGeometry x="350" y="1290" width="130" height="40" as="geometry" />
        </mxCell>
        <mxCell id="4IGu5WWSZYh_7H1Q3Tkf-68" value="" style="shape=image;imageAspect=0;aspect=fixed;verticalLabelPosition=bottom;verticalAlign=top;image=data:image/jpeg,/9j/4AAQSkZJRgABAQEAYABgAAD/4QK+RXhpZgAATU0AKgAAAAgAAodpAAQAAAABAAABMuocAAcAAAEMAAAAJgAAAAAc6gAAAAEAAAAAAAAAAAAAAAAAAAAAAAAAAAAAAAAAAAAAAAAAAAAAAAAAAAAAAAAAAAAAAAAAAAAAAAAAAAAAAAAAAAAAAAAAAAAAAAAAAAAAAAAAAAAAAAAAAAAAAAAAAAAAAAAAAAAAAAAAAAAAAAAAAAAAAAAAAAAAAAAAAAAAAAAAAAAAAAAAAAAAAAAAAAAAAAAAAAAAAAAAAAAAAAAAAAAAAAAAAAAAAAAAAAAAAAAAAAAAAAAAAAAAAAAAAAAAAAAAAAAAAAAAAAAAAAAAAAAAAAAAAAAAAAAAAAAAAAAAAAAAAAAAAAAAAAAAAAAAAAAAAAAAAAAAAAAAAAAAAAAAAAAAAAAAAAaQAAAHAAAABDAyMjGQAwACAAAAFAAAAoyQBAACAAAAFAAAAqCSkQACAAAAAzAwAACSkgACAAAAAzAwAADqHAAHAAABDAAAAYAAAAAAHOoAAAABAAAAAAAAAAAAAAAAAAAAAAAAAAAAAAAAAAAAAAAAAAAAAAAAAAAAAAAAAAAAAAAAAAAAAAAAAAAAAAAAAAAAAAAAAAAAAAAAAAAAAAAAAAAAAAAAAAAAAAAAAAAAAAAAAAAAAAAAAAAAAAAAAAAAAAAAAAAAAAAAAAAAAAAAAAAAAAAAAAAAAAAAAAAAAAAAAAAAAAAAAAAAAAAAAAAAAAAAAAAAAAAAAAAAAAAAAAAAAAAAAAAAAAAAAAAAAAAAAAAAAAAAAAAAAAAAAAAAAAAAAAAAAAAAAAAAAAAAAAAAAAAAAAAAAAAAAAAAAAAAAAAAAAAAAAAAAAAAAAAAAAAAAAAAADIwMTQ6MDg6MDEgMTE6NDA6MTcAMjAxNDowODowMSAxMTo0MDoxNwAAAP/hApxodHRwOi8vbnMuYWRvYmUuY29tL3hhcC8xLjAvADw/eHBhY2tldCBiZWdpbj0n77u/JyBpZD0nVzVNME1wQ2VoaUh6cmVTek5UY3prYzlkJz8+DQo8eDp4bXBtZXRhIHhtbG5zOng9ImFkb2JlOm5zOm1ldGEvIj48cmRmOlJERiB4bWxuczpyZGY9Imh0dHA6Ly93d3cudzMub3JnLzE5OTkvMDIvMjItcmRmLXN5bnRheC1ucyMiPjxyZGY6RGVzY3JpcHRpb24gcmRmOmFib3V0PSJ1dWlkOmZhZjViZGQ1LWJhM2QtMTFkYS1hZDMxLWQzM2Q3NTE4MmYxYiIgeG1sbnM6eG1wPSJodHRwOi8vbnMuYWRvYmUuY29tL3hhcC8xLjAvIj48eG1wOkNyZWF0ZURhdGU+MjAxNC0wOC0wMVQxMTo0MDoxNzwveG1wOkNyZWF0ZURhdGU+PC9yZGY6RGVzY3JpcHRpb24+PC9yZGY6UkRGPjwveDp4bXBtZXRhPg0KICAgICAgICAgICAgICAgICAgICAgICAgICAgICAgICAgICAgICAgICAgICAgICAgICAgICAgICAgICAgICAgICAgICAgICAgICAgICAgICAgICAgICAgICAgICAgICAgICAgIAogICAgICAgICAgICAgICAgICAgICAgICAgICAgICAgICAgICAgICAgICAgICAgICAgICAgICAgICAgICAgICAgICAgICAgICAgICAgICAgICAgICAgICAgICAgICAgICAgICAgCiAgICAgICAgICAgICAgICAgICAgICAgICAgICAgICAgICAgICAgICAgICAgICAgICAgICAgIDw/eHBhY2tldCBlbmQ9J3cnPz7/2wBDAAMCAgMCAgMDAwMEAwMEBQgFBQQEBQoHBwYIDAoMDAsKCwsNDhIQDQ4RDgsLEBYQERMUFRUVDA8XGBYUGBIUFRT/2wBDAQMEBAUEBQkFBQkUDQsNFBQUFBQUFBQUFBQUFBQUFBQUFBQUFBQUFBQUFBQUFBQUFBQUFBQUFBQUFBQUFBQUFBT/wAARCAE2AQoDASIAAhEBAxEB/8QAHwAAAQUBAQEBAQEAAAAAAAAAAAECAwQFBgcICQoL/8QAtRAAAgEDAwIEAwUFBAQAAAF9AQIDAAQRBRIhMUEGE1FhByJxFDKBkaEII0KxwRVS0fAkM2JyggkKFhcYGRolJicoKSo0NTY3ODk6Q0RFRkdISUpTVFVWV1hZWmNkZWZnaGlqc3R1dnd4eXqDhIWGh4iJipKTlJWWl5iZmqKjpKWmp6ipqrKztLW2t7i5usLDxMXGx8jJytLT1NXW19jZ2uHi4+Tl5ufo6erx8vP09fb3+Pn6/8QAHwEAAwEBAQEBAQEBAQAAAAAAAAECAwQFBgcICQoL/8QAtREAAgECBAQDBAcFBAQAAQJ3AAECAxEEBSExBhJBUQdhcRMiMoEIFEKRobHBCSMzUvAVYnLRChYkNOEl8RcYGRomJygpKjU2Nzg5OkNERUZHSElKU1RVVldYWVpjZGVmZ2hpanN0dXZ3eHl6goOEhYaHiImKkpOUlZaXmJmaoqOkpaanqKmqsrO0tba3uLm6wsPExcbHyMnK0tPU1dbX2Nna4uPk5ebn6Onq8vP09fb3+Pn6/9oADAMBAAIRAxEAPwD9UtopaKKACiiigAooooAKKKKACiiigAooooAKKKKACiiigAooooAKKKKACiiigAooooAKKKKACiiigAooooAKKKKACiiigAooooAKKKKACiim5oAdRTd1RzXKW8LSyOscajJZzgAe9AE1FeTeMv2k/CfhWZ7W3nbWr9ePJsRuXPoXPH5Zryi5/bG8RS3T/Y/DOnpADtVLi5Yyfjgj+VZyqRjudFPDzqbH1hRXyrD+2D4jXHm+ELGYHp5V8VP6qa07X9sS7Vf9L8EzI3/TG+Vv5qKj20epo8JUXb7z6Xor58s/2vtPmz5/hPVYgG27kkif+orUg/a08Kni40vWrZvQ2yN/J6pVYPZkPD1V0Pb6K8ktv2nvA86hpLi+tl/6bWMn/soNalr+0N4BusY19Iyf+etvKn81q+ZGbpTjuj0eiuMtvjF4KuxmPxLp/XHzzBP54rUt/H3hu8XMPiDS5B/s3cZ/rTujOzN+is+DXtOuv9Tf2sueBsmVv5GrQuEblXUj60cyCzJqKZ5nuKcrZpiFooooAKKKKACiiigAooooAKKKKACiiigAooooAKKKTNABTaRn9K8c+NXx4t/AitpOk7bzW5FOepSAere9TKSitS4QdSVkdX8SPi5onw1sWkvZftF8VzFYwkGR/r6D3NfJfxD+MHiT4jSSNe3LWGmZxHp1sxVRz1Y9WNcrf315rV7JqN/dSXl5Mfmkm5PXoD2FAtRuDPhweuDWLbkdiUaei1fcghiSCGSRvljt42bAOM4HBryfTrHUvEmrOLN5WuZWZ/v4wK9W1y1urjwzqMVnAsl0w8tEB6jNed2vg3xRZ7ZbeznhlXKloTg49OtePjoTlKEVFuK3sfVZLUpU4VZTklJ7XLLeBfFSqxj8xlTuJz/WmDwj4tK/L9oORn/XZ/rUL2PjO33IPtqqRyA//wBeo428X2qqMagRs6nP+Nc1qa+xNHqc9WX/AC9pMtf8I743t2VRHd7CM/K/f86ebXxrAUUrfAcjJORVWPWvGUC7Ue/I67vLJxTo/GHjGPDPNdP1yDFS9z/p4gUa72VFk/2zxmmcLeMM8HbxQ2ueLVBZ1utyjndFmof+E28VAopMyYOSDCefxqZPiJ4jhVt0YYk5G6EnNTzU/wCeaF7Kv/z5pP0Y+PxZ4nhjEYExz8xL2+cD8qX/AITnXWZEeIMAOHMBzx60wfE7XvvGGJj6GAgZ9KJvilqThg1nb+Z04jxiq9rH/n7JfIX1eq3Z4WD+aQ+H4ha1ZsXWFCcjDeWetVLjxRrWtarD5dxdwzSsFKxSOijn2NXofitexn95pdrIMce/vW54Z8Zz+JNaNg2nw2qiMkyKRmqjyV5Rg6zflaxlU9rg4SrRwkY6b3uex/D/AOPXifwJJDayTHWdNUhWtrpyWX3R+o+hr6Z8BfGzwx4+2w2l8lrqWPmsLkhJAe+3sw+lfEX2U7iVb5upx+VV7qxiRzwYpAPlkjbYyMOhBHQ9/wAK+i5uVWSPhHGMnd9T9IlkB4p1eN/s2fEqbxr4NGmapcCfXtHxBPI3WeP/AJZy++V4J9VPrXse7pWkXzK5zSjyuzHUUgpaokKKKKACiiigAooooAKKKKACiiigBrHFN3DpTmrivix8RLb4aeELjU5V826f91awd5JT90fQdT9KmUlGLbKjFzkox3Zx/wAevjQvgW0Gj6Syy67drjj/AJdkPG8+/tXyZPcSXN47Ts1xcSMZHmY5LMfU0+8vLvWNQuNR1Kf7RqN3L5k8rcsMnhPoKms7cxIwKgkn7/pXOtXzM7pctNezh9/chjjEeCTvwCTmnhW+UDaEwDmpZ1jwMjIzyaWOFWwpZQmcfhVmVtDkviN4gutDXTbWwuPs00gMkkij+EGuaj8ReLoYVeOa7ZGPDBOtO+IF1LfeLZcW85t7eJY1ZVO0560+x+I3iDTdPS1ijV4Y/lG+E8D8q+crVpPET55yjFbWPvcHhYxwVN0acJzer5hv/CY+MI+TLcH/AHogaD8QPE8Z+Z2Z/wCFDDnipF+KGuxoVKQ892iP+FSJ8WNT3J/xL7MseC5TtSjVp7+2mbPD1n/zCU36NEK/E7xOrHdFH6f6kih/iprrQ7Gihx2HlH/CppPixdvtMthZleR0FO/4WopjwdKtCPu5yKft4rbEv7iPqlT7WCX/AIERL8V9RjXY1las2MHch5H1xT4/i3ebSz6ZabF+UBRxUsfxPtFyG8P2zqV6EjrUkPxK0oLn+wLcHuuRitFiFfTE/wDkplLB98D/AOTFWL4s9TLpFq/OCAef5U7/AIWnasT/AMSO1JI9jT1+IPh55MyeHVyf7uKd/wAJz4Xm3B/Duw/7C449atVp9MQvuM3hae7wUvlIo6v460zWNNmiXRIoLhuEnyBs9elXPhPZ721G+CkqFEQYDI9Sc1I/ibwZ5LM2iyKOrYT+ldhpcthLplpLp8BtbKRPM8rpu9z71rh6ftK6rSqKTS6I48dX9hg3hoUXBSf2nfbctb0boMJyAfWoZI1kbocgfN3xU2V2KQMc425pyxlsqo2q3VvSvW6HyhrfDLx2/wAOfGWna0xb7JzBeKM5kt3bnj1U/MPpivvK1uY7uCOaGRZYpFDpIhyGU8gg9xX50XUZhcblEq42/UV9S/sofEJ/EXhG68N3zn+09AdYkV2BZ7VsmI++0ZT/AICKcZcrsxTi5Rc+x71S0i8rS1ucoUUUUAFFFFABRRRQAUUUUAFFFIaAGSNtVj6etfEPxq+Ih+JHxAna3LPpWl7ra1Qn5XYHDSAeuf5V9EftHePZPA/w5uxaOF1PUT9jtRnkFh8zD6DNfHFjB9jjjjH30XByeck8n8TzXHUlzVOTotX+h6dGHsqDqveWi/V/oXbFVDOxHGcsAM81LMxEWVOB0FMumt7dQ0s6wr3ZWA5qj9utrpjFHdJLJ2+YZFaHPfqaCENGUbl8Z9qmhjRFlkmVfLjTeefSqUMh2hcncKq+JNQ/snwnqdxK4R3BjXPvSclFOT6F04OpUjBdWjkj8VtRRpgmn2vlbm2tIBnAPWmx/FmZFxJpdq6k9MCuf8LeILTRb6Oe4s0vkKkFZCMDPcV0n/CxNHuGIk0CNlB6ZFfM0cXOouadflfax+gV8vpUZqEMJ7RWWqlYZJ8UVkmWR9Iswn3Qu4H+lB+KVkvy/wDCP27q3GAQKWbxz4ekUn/hHVVt3XA6elJ/wmHhe5wX8PYPGdvauhV5b/WF9xyvC0uuCl/4EyGT4iaW+APD8BIOQdw/KrDeOvD0sKp/wj0Zc8thRQfEfgliobRZAOcnaMZok1rwNceUo06eI/xYzg1ftqjeleH4CWHoL/mFqL0bEm8Z+FJiN3h4q23BCjOP1pW8R+DJYxu0eSMHq22mtqHgJgmLK4Xkgtg4pN/w9ymTPv7soOBT56rek4Mj2VBf8uaqBNX8BMyM+nSAD0U1N9u+H11lDZzQD+8Ac0z+y/AMzOy300RA6H/9VK2geAmgVv7Wk5baVVsGq/eP/n2yH7Bbqsjl9c/s1tSki0hpjYyOsaecASGNeww2aWdha25T5YYgu3PU965fRfCvhRtSia21Br2dP3kUJkyOOec12M1wWdjgHOTt4rqweHdFznK15dtjy81xscSqdGmnaK+1vroR+XiRGAUhen0pcbozs+UKct70wTOxZtoLDBwo4pPtIXex4VjzXoHgkF/EzRg5yQOeelN+H/xCPwp+OnhfVXl8vS9TX+z78Mf+WbtgMf8AdbBp1xJhXVSAuQcZrzT40Rhf7IlVMuJMD0NcuI92m5Lo0z0MDFVK6pPaSa/A/V6GQOileRipa8r/AGbfHx+IHwi0S/mk331vELO6PcyIAM/iNp/GvU8mu6EueKl3PIqQdObhLdC0UUVZmFFFFABRRRQAUUUUAFNYnaadUVxIIoXdjhVGT+FAHx5+074p/wCEi+KtrpKENZ6Nb5bnrK+Dn8AMV5NNefY2muym4rgDd6k4qbWtcbxH468S6kX+aa6cofVc8D6cU3VNN/tTR7qAP5TTLkSf3WHQ15mGl7SLqfzNv9D3sdH2M4UP5Ul83q/xbIvDfhPSvFd5cf2zJJNcRtvFsZNiAH0rxf4vPD4F1NrrRZpItl2kcaluJM8FQO9dVqHi7xb4bgW3/wCEeh1rUVjMUV5ESMjtuArivCfwn8Y/EDxfZ6/45lWy0uxkaWDTITkM2c5at4uVrM5aihzc8Hp2PctML3FlaB22SvGrsB3OBTfGOsWGi2VtBqVub8XHSFVB6Vp4HSKIMoIVNv1rz34p3v2rxgLdG2rawAD/AHjXPjKzw9CU1vsjsyrCxxmLhSltq3YtL4k8JS7fN0CSPd22jj260q634HXesmlSxt6belRW8ngxdPtRcC4Nzj95wfvetOjXwPJ/rJ7hQepPb9K8yM6skm5Uz6OVGhBuKhWSXYZJqXgfy8tZz7v4Rg0huPAMkKhbe4Rycs2D071JPovgnblNVklVuy9Vpr+HPBS+WsesPGTwS/XFXaq+lNk82HX2qyFEPw/ZiFmuAuOmMfNTl0rwRgFtRlQ+g9aYPCfhR5CseubB/eYilfwL4eaHdD4iQvnqxWl7Oq/+XcGP2uHX/L+qis2m+CpJHI1SaIqcHPf9Ksr4T8GN015xu6ZP/wBakX4c6FMqM3iCFpGPoKJPhTYtgxa9bkscDO3/ABpxo1P+fESXiKEf+YuovVMc/gfwxNNx4gO7bgMSKq6r4A0rT9LkvLTW4Z3jP+pYglvarR+D8ZQhNct3ZhgLxUafBeXzFVNYtVX1C859aJYeck06CXzHDHUoyj/tsmuzjv8AMT4T6Wjaxf33kKEt4NuccEntXfsJOpCxEHknoB65rL8K+GR4N02e1N0LySdvMeVDxWf49vH/ALGht43dTcyiNmHHGfWvSwtJ0aEactz5zMcQsZi51YbPb5Cal8QbCwkmhtoLq/Yffe3hYr781BpHj/S9YmktYnIucbhBMNrcdeK7XQ/HHhjQdPttP8trdolCyR+RnJ/vE45r568feMNL8TfHbS7DwsyyTxyCW6aJRhVxyCRXTzReiZxOlUirzjY9w84vGd8Yx0XFed/Gi4MJ0S0JwWJOB716VDE0MIDAO7DI9uK8b+LFw9944gtn6WyqmR0BPeuPGytQce7R6OVU+fFxt9lNn1J+wn4yex8Sax4YnPyXcK3cXp5i5DAe5Bz+Ffaq/d61+afwC1Z/DPxS0LVEchFukikxx8r4Rv0NfpYv0rfB/wAJJnNmsUsRzLqh9FFFdx4wUUUUAFFFFABRRRQAVi+Mbj7H4U1mYHBjspnz9EJrarB8dRmbwZr0a/eewnUfjGaT2Kj8SPzx0lkaO52AGR5cnb16n/Gt5bYGNQJG4HyhuxrmtJkZft0WAj53gr9a3Y/NPkiGRfLI3SbzzXkZdLmwlP0/U+jzmDjmFRf1sTr87Pwu5Rgcdf5VGimPAc4bJ4xmnSyKOpzxxj+dNaR9wHybQuc4716G54dkSGN5o/MhH71eeTjpXE6np/gzU9SkurrVZFvpGPmmNiQpxjFdXqF2LHQNTvAcbYiF2+pryvwn4ettYm8m7v47BPL3tIxX5mz0rzMbWcJQoxipOXc+kynC+0hVxEqjgodjp4/DfhCeQtHrUgB4+ao/+EN8LTM+zxAobHVsUf8ACttNwBFr8LAnjKrS/wDCp4J5HVNat9/bhQK5fq829aEfvR6v1uktsZP5xYxfh7oaKHXxDEjY/hI5H5VI3w10lwRH4gt5S33dwGQajb4SPsfZq9m204DBgcVC3wmvFmBGoWz89cgUexn1w6+8PrdNf8xz/wDASzcfCyy+Ux65Az9DwuKgPwj3qfL1i0J6k8f404/CXVmbb9rhYYyAH4P61Avwj187XhuYgyZyoc1PsF1w3/kxf1x20x//AJITn4M3bLiPUrVxx/EB1/Gmv8G9TXgahbEcYCucUx/hd4n27wyBWx8wmIzxTIPh34uhYpG8nI6C4IFHsIL/AJh394LFVHtjYv1iLL8JNcXc0d1E7f3UkOa5jXNN1DRbua0vJpra4UABVm5weM9a6NfB3jKEMI3uI36blmNNt/h74ivtUtJNQhYxLIj3E80m5mA561lUw8pJKlSlF37nRRxkabc8RXhONnpZb2PRdMtW03SdLtWJkdIFLsepOO9Qa1pNtrtjJY3OfJfoQcFD2INaM8wabJOY1G0H1FRsfLRQR5gbkCvpbcunY/PuZv3urPLNW+EesarDNbx+Ip4InUrnOG9MZrR+FPwR0L4VQzTWrPfatcLma8mIJ6+teg8rCxK/P02k9M01dscYDhcDCll7VKstkOVSclaTuQXVw1jFJcNzFDEWb3614JZyTeINfutSmJYySEj2GeBXofxh8Smws4tItJD514cyKvULWL4Z8LpZ2kLMp5w/y/SvJxUpVq8aMdo6s+py2EcLhZYme89F6I6rwY32W6tGAyd6tu9DuFfp5aS+fbRSdnUN+lfmbodof7Ws7aMbjJLGF+pYCv00t08uGNB0VcCvUoR5Y2PncfLmmpEtFJS11nlhRRRQAUUUUAFFFFABVXUrYXthc25GRLGyH8RirVNNAH5r3Fp/Zni64tpT5eyR4mX0IbgfpWhFcG1YAbQcFSxGcV3vx8+H8ml+PNYuYNqRyOLpABzgj/8AXXASSLeW4njwMrg565r53L5OlOrhZbxba9GfZ5tFYmnRxsNVKKT8pIsecqwnkncv3sVE0yRyRIclGOT71JHdJJFHyw7cgUpwSvy8sDjpnpXtHy70KWvaO+taG9gl2lkJHH7xzgEDnFck3wrnmjCDVbV1U4ySPzo+KUxbU7OwErOltFvPzYOT2IqoPhnrlxZxTIFZWXcB5p6fnXhV5wr13TdLncfOx9pgaVbCYSNV4lU1Po1csH4R6j5RMV7Zykc/eIpknwo1naNk9uSwyf3hGP1qFPh74mt1BVW2nkJHMR/Wlbwn4sVh+7uVBGTtmz/OsPZU0/8Ad5fed31ms98bB/8AbqHD4XeII48gxMBkcyEcj8aenw98ULgLEn084g/XOahk8L+LVUBo7sBvmH7wUxrPxrDHNuN95TkY5yRj8afJT/59TQe2rvbE0mTnwb4ujkJEch2jGVlPH45qRfDfi6zXKx3QbviYnPtVaNvHEMI2/bmUcqfanvrXjq3wVN2QBgs0ff8AOrSpR+zURnL28v8Al5SY5dF8XW0Pzm9wxJAMnAz7E0jx+M4vlVr1W69elDeJ/GMahX+0HPdoiaF8d+MLVs7ZG4x88JNF6XeoiOXEv7NKRDNrXjDTd0k9zdRhgPvrla2fAfiDWfEGrzRX199otYItxVhjmsbUPG3iLV7FrK4hKxtwQsBzya6H4a6e+m6Xe3M8DRy3EmyMyAghR3xV4duWJioSlypa3MMaoRwM/bU4KpsuXzZ1W7bt25yTg8ZFMCndgblI7nvShQ8TlSzHGSGOMUsalgGcAAcDJ617x8WJcQ7wx3ZbHNV7i+t9G0u41C7I8mKMuPcgdBVgWxfzJ3/dwRg+ZITwAPevEPiV49PijVo9L007NMgOCF53HuTXJicQsLDm+09j0svwUsdXVNfCt35FTTzN448XPLIT5jPksT9xAf8ACvV7ONYWSEbmQKAGNcF4F0cWVvJdOh+1zDAbpha9Hs1DwoByR0rHAUHTpc9T4m7s781xMZ1lSpaQhovutc6X4UeHTr3xU8L2oG6JrtZZBjtGN5/RTX6CqMYHavlH9knw22oeK9S12VMw2MAgibH8ch5/JV/WvrAV6dNWPncRJyaXYKWiitTlCiiigAooooAKKKKACkpaSgDxr9oHwpFqNna6iyZC/uHI9zkf4fjXyRdWcmg6jNaS5S3Y/uyf4Tnv+dfoP4i0WPxFo13YTqCs6bQSOjdQfwOK+PfiL4fkm+0QXNrtubdjDJ25H+RXh5lTlTccXS+KO/mux9Zk1aFeEsurfDPbyZ5w/wAlwyhDh+M+me9XLfEctvv5RSC2M1lx30kc0dvdusci8JNn7w7CrSNJbWN1cNMDHGhwp9a6sPiqeJpqpD/hjz8Vga2FrexqLW+nmch4o8K69qniS+vorRZreYbYhv6AdKoSeHfGFu20JdqFAAUPx/Oqtl4j8V6o0rW11NIwBO2MZCDPFXm8U+NYVLSecf8Aei7V4j+rVJyqqM9eq6n2UfrtGnChN0rRS0luQR2PjG2mIQXysvYPn+tOW78b245+3EZ+7jJ/nT/+E28Y24EirIx65MJORSv8TvFo+aRNwPT9waf7r+aohcuJf/LuixBrnjVXDB7rcOitFmmSeNPGKhg0l0MHkeRkVMPif4iHztbowX/piaanxc1uGJ1eygJY/wDPI5P1pqdJbVpi9hiHr9Vpv7hsfxD8WCNFzIUQ7mJiI+gqc/E/xSnmAoCBjO6E/wA6fD8XNRUlX0u3Ax3XGasp8YplXYdHt/lOScjp+VX7WH/QRL7jOWGrP/mBi/SSKh+LXiDYFa3jkJ/2D/hT/wDhb+q7SZLCEbQc/If54q1/wtxNuH0SHqfm4pP+FsadcM8UmgxBXxkDHNV7eK2xP4GTwcn8WA/8mKsnxcvmhLtpluUAzuU813VjdS6hYWs7ReUZkDFc/dyOleR6nfW/iTxBEtparaR3MyoIE5xgjmvYL5ktSipuZkAiXb0AAA/rXVga1Ss5uc+aK0TtueZnGHoYaNFU4ckpJtq+xBt3RkPyCP4ePrUyxgw+YJVjhhO5mc8baoapf2ei2D3eozJAq/djYgM4PXA614l4/wDilc+IEezsf9B00cCEfef/AOtW2IxdPDRs9ZdjhwGW1sfK1PSK3l0Nb4qfFqTUrdtK0iV4bHOJWVuZW/wrnvAvh5Gsbm7ni3yscqehUd65vR9Oa8lieWM4Bwq47epr2HwvZFbXhRuxjjoRXk4WNTG1XWq9Nj6zHyo5XhVhcMt9/MfpalrdFiYqrc/QCumjuRDCVAJdiAuB196piBYWG1FVeflX+ddV8KRps3xB0BtXTOnC9jDbujMSNufbOK+j6JHwcvicmfaXwL8FHwT8O9PtZUC3tyPtVz6726A/QYH4V6H+tRx42gAflUldGx5zd3cWiiimIKKKKACiiigAooooAKKKKAGNXk/xc8GrPcx6pEoEE37u6H4fK39K9axVe9s4r61lgnXfDIpR19iMGk1dNFQk4SUl0Pgnx94Tj0a8fzos6e78SY+6T6VyOq6G8tv9lj1Am1fB57j0r6n8feCCzXGk36+ZGfmt5AMBl64+or588R/C+8sr0Q2xlkjPzIV6V8PmGDrYeTnhk3GW6R+tZRmGGx1OKxNueOzaOMsdG1bwy0r6dMmyQANGRy2KuS6v4kuYslICFPQrii68J39qxa5kuEKnGATVebSruH5fNnA6/MxrxI4nG4aHs1dI96pgcFipupJRk+5IuteJ7VSfs0Dq3O3HX8ajTxB4hRudPt2UjIH+RTV02524+0yt3HzHirD6VqUahzPOwAz0zito5njt7v7jnlkmAW8F97HDxBrL8HR4eODyKpt4tvYd0R0GIt2JxzVuODU5ZP8Aj6f5uAMfrStHrEG5HaNxnO7aMjFaRzXGp6t29EZPIsvtblX3v/MoTeJRcOryaCpKjBAA4NPHiGweMM/h9QcfNha1oLLUmm8yGLe5BHKdeau6fpd/eTPDI8Vo6r83mp19q1hmWYS2X/kqMZ5PlsVd6f8AbzOYXXtHSNg+hs7EZwqDilGraBNJxosinHLeXjFdrZ+F7mfKxaUJSDnzGyC30rS0Xwj9padbzS/s2DgEZ5rvjXx8nblX3Hm1MHllKLkpS07SPOrXWNAtbgS22ltFIvIkEfIPrWb4g+Jg00SNY2bGZjnzJ/urx1xXfeK/Ac9na3FxZwtuxkKDnIrxHxVoOp3nlAwyrGSR93GTSqY3H0ZezaS9EVh8ry7ENVeZvykzj/EWvX2tXbTXU7XEzEkEkkDPYVn2ukztIgWBribO7IHA9q7HS/BUzTCCcSLkZ3IMj6ZrqofDj284SJiIQNu/HNGGwVWs+eoztxmZYfCR9jRtp93yMXw34YUSRNJG5IXLfX0+ld/awrarGikKc/d6VBZWP2eEhjg+vrVy1tri6vIbOziae6nfascYyzEnGAK+ppwVOHLFH51ia0sTUc5PQfDGbiZcdWO0KBXG+IvEl5pfxHstOdmt4FUJGnIG7rnPrX3J8Iv2a7bQfDNzc+II0n127t2jjQ422gIOP+Bc8mvi/wDaS8L3tj/xMFiK3+nS4f5eflbGOPpWqi4q55/tOd2P0k+FPiweNPAekaruDTSQhJtp/wCWi8N/j+NdhXyb+wn8QY9Z8OXGjPMpLIt5AhPKn7rrj6819Y7uldC2OKS5ZWHUUUUyQooooAKKKKACiiigAooooASlopKAMXxN4di8QWLRNhZl+aKT+41eK6tpc1sssNxHtubZ8SKMjIzwR6/hX0Ga5fxp4RXxBZs9uRFfxj92/ZvY1jUhzI7MPWdKWr0PnrVNBtpn3Ogjdfmxndn2rMm8I2l1M0zxeeuPur2rX1i8fT72Szv4HguImxuIx07j1qJNSUqGQqR1znGa8+yekkfSLEVIr3ZHM3nhyC0j3xWu5AckY6VNYaTbOfnhYBh0J4rp4b5H6Ro4J5wc59qlWSJ8jyPm67QO3pVeyj0QPHVNm/xOQHhGKSYybfLVTzgcYqzY+FLOaUv5CuVG0Z6GunSNV37EYq3O09KPLiVAyr5bHkqOMUKjDewSx1Vr4jPtfDcEDGVYR5uNuOwqvrmg/aLN5Y4EMqgnpzXQRy8DAYr6+tTKwJw3CsMcDmtuWNrHF9Yqc3M2Y/h17i409BcxqsyqBhD0ArUmt0dQzBevTHNJD5IRgGwPXoetKpRWY+YT/s5qtUrXMZS9pJyfUzL2xSSHj5eecjoPWvPvFOiiT5wFxnP3RzXpt0wMfTjvXIa0AykAZC9MDOazclszSPMtYnmM2mxxbkQbWbrxWZNEIMgOpPcd66DXJEtywLKB3+YVqeBfg74o+Jl4PsFo1lp2QHv7rKRge3dj9KtN/DEynp702cNY2d3ql9DY2FvJdXc/ypFEpYk5r7I+A/wBtvh5bx6vqwS68RSoDnqtsD1Vf9r1NdL8KvghoXwttVa2j+2aow/eXsw+b3C+gr0Xb0+tdMY23PMqVeZ2Wwm35RxzXyH+1t4FZdQuriJf9G1KBpD6eaOCa+v9tecfHbwqPE3gG+2JuuLUecmBk4H3h+VU9jGDsz88f2WfHcnwx+JWnW07ER29z5btnGYW+Vs/n+lfqjHIsiqyMGVuVPUEGvyB+INjJ4V8cWepIrLDI4jfjA54/rX6c/s/+NB44+F2j3byb7m3T7LNn+8gAB/Fdp/Gs4PU0qrRSPSRS0i/dpa2MAooooAKKKKACiiigAooooAKKKKAEpCoPalpaAKN1o9lfSbrizt529ZIgx/UVTk8HaHMMNo9iR/1wUf0rZpaVh3fc5yT4feHJPvaLadMfLGB/KvLPjp8ORpnhk6p4cT7BLbZ82OPJDL2OPavdarahYw6lZzWtwgeGZSjqe4IxS5UylOSe5+fnwr8eazqfxgsPCPi/XJLLS9WVoLG5tVVStwPuK2VOdwO0e5r7Ai+CFgkEcb6tfSuvWRiuW/IV8XftLfC288OahqAtpHt7mzkW4tZo+GUqdyMp7dOo5r7I/Zt+MUXxs+FOla8zKurRg2mpwKMGO5Th8D0bhh7NjtWUUr2sbzlJpSTLT/A6xbldTuhxj5lU/0qE/A2DduXWrhfbyV/xr1HFFacqMvaz7nlx+CPykDWnx15tx/8VUDfA+X+DWV567rb/wCyr1ilpeziHtZ9zxq4+BF/JnbrsQHQA23/ANlWLd/s2aneSJu8QxJH/Eq255/WvfsUbaPZx7FrEVFpc8u8M/s9+FtBmjuru3Os3kfKyXnzIv0Tp+ea9MhhWGJY441ijUYVUGABUpX3xRj3q1FIxlKUndsKWkpaZIlRTwrcRPFIMxupV19QRU1I3rQB+b/7Ufw1Gn32sWAQ74maWE89OWB/SvQv+CffxK85bnw3cNsM0IdQf+e0fB/EqSf+A16r+1Z4KW8srTWokydpt5v5gn8M18P/AAl8SXXwj+N0TBysRuRcRoD/AAZ+YfiKxfus6o+/Cx+tA4wKdVaxvItRs7e5hYPDMiyI3qpGRVmtjlCiiigAooooAKKKKACiiigAooooAKKKKACiiigApKWkoA8c/aL8AxeI/DLalHEDPbJslI/ijPr9M18hfsv/ABAHwL+P8vh+7k8nwx4sdYCXbCQ3IJ8pyfU52k/7Xsa/Rm6tY7y1lt5kDxSqUdT0IIwa/O/9qn4Py6XNqQhj2vasJ4JE+8V5IZT2P+FZyVtUbU3f3WfosGzjFOrw/wDZJ+NyfHD4R6dqMz51zTj9g1NGPzecgAEh9nGG/P0r2+rTuZSXK7C0UgpaYgooooAKKKKACiiigAooooA53x74cTxV4T1LTXXc0sR8vjo45Br8tP2hPDc/h/VNP1+BWE+nzbJ8dcDk5/Kv1s6V8SftXfDJI9V1aGO2D2uowmdAP7x6j86zmro3pOzse5/sn+O08bfCLTA0oludPxA/OTtxlD+Rx+Fe0V+dX/BOj4jS6N4uvfCN7IVEqtb7H4w6Hcn443D8RX6KdKcXdGc1aQ6ikpasgKKKKACiiigAooooAKKKKACiiigAooooAKKKKAE215L+0L4HTxF4RlvoofMuLNfnVRy0Z6/lXrVQzQJcwvHKoZJFKMpHBBGCKT1GnZ3PzF+AvxC/4Zv/AGmYoLpzb+E/FjLZ3Kj/AFcUxP7qT2wxx9Gr9PlYHoa/OD9sb4Nmzl1G1jhZfJxcWkqgDgnIwfbFfTn7EvxxPxm+DdiuoTq3iPQ8afqK7vmcqMJKf95R+YPrWcdHY2muaKkfQopaQdKWtTAKKKKACiiigAooooAKKKKAEPevIv2jvCza14NXUYk3XGnvvOOpQ8H8q9eqlqmnx6pp9zZTDMM8bRsPYik9SouzPyXj1C4+Ev7QllqtvJ5FveSJIGXgCZTkc/hX6xeH9Yg8QaLZalbMGguoUmQjkYYZxX5mftSeD7jR5JbloBLd6LcltoHLKD/hX2F+xb8QB40+EdpA03mS2RG0ZH+rcbgPoDuH4VnHR2N6vvRUj6DFLRRWpzBRRRQAUUUUAFFFFABRRRQAUUUUAFFFFABRRRQAUhFLSUAeP/tLfD+Pxn4CubpQftViDJlRyY8fMPw618E/sx/EBv2ff2nLazu5DFoHiZvsFyf4VZiPKkPsGIH0zX6oXVrHeW00Eyh4pUMbqRwVIwR+Vflp+1x8M5dFuryOFDHd6dOzRSqCCfm3Kc/lWctNTem7pxZ+qCsCBg06vGP2TfjAvxq+CPh3W5JlfVYYhZakufmFxGNrHH+1gN+Jr2bNWndGLVnYWiiimIKKKKACiiigAooooAKQjNLSUAfKn7WvgNbq+F75Y+y6lbtHIcDiRR0P1H8q8E/YB8fP4P8AiVJ4QuJSIHaS2VT/ALR3J+TAD8a+6/jN4T/4S3wDqMCD/SbdftMLccMo5/8AHc1+XWrag/wt+P2maza/cnkRm25UFsgjn1zgfjWMtHc6YO8XE/X9WyBTqzdA1aLXdFsNRhYNHdQJOu3kfMoNaNbHMLRRRQAUUUUAFFFFABRRRQAUUUUAFFFFABRRRQAUUUUAJivlz9sjwGdU0+HUYoQ4nTypD33KOPzH8q+o65b4k+HF8TeEb6127pVTzI8jow5qZK6Ki7M/Pn9gr4iN8K/jpq3gG/lePS/Ew820U/cS6TJwP94Hb9a/S4dq/IH456HqHgfxZZeI9Pd4dS0u7S8hZRjG1s/0r9T/AIS/EC0+KHw90LxPZsDHqFskrKDnY+PmU+4NZwfQ0qL7SOxooorYxCiiigAooooAKKKKACiiigCOaNJo3jcbkdSrKe4I6V+YH7Ynw5l0Wa/uIeZbG6fZgYwoOV/MEV+oJ7mvlb9rzwjHdNPKYvMj1G0xjA+Vk4J/EYqJq6NacrSOo/Yh8fjx38B9JV5fNudNY2r85OPvL+h/SvoIV+eP/BNfxg3h/wAX+KfBVzK6rIPMgjb1Qk/+gkiv0Nz8tEdhVFaQ6iiirMwooooAKKKKACiiigAooooAKKKKACiiigAooooAKaygg5GQeDTqSgD4S/au+G7RXuojYrQtkjp90g/0zUP/AATU+Jlxat4l+GepTKWsJGu7Fc8hCfmUD8Qfwr6M/aN8H/27oUV2nG0GOXjrxxX556D4mk+Bv7RHhnxZC3l2Yu/sl8Qcb4mO0g/hWD92Vzqj78LH657qWq9rcR3VvFNCyyQyKGR1PBUjII/Cp63OUWiiigAooooAKKKKACiiigBrdDXmH7QXh0654Ha4jXMtlKJQT/dPyt/SvUKoa7pces6Pe2MgytxC0Z/EcH+VJ6jTsz8nfCniCX4N/tUaRrYYrZXFyqSqpwGUtz+hxX62QTJcRpIjb0YblZehB5Br8lP2ofCs2hX0OpRr5VzZXOC390q3T/PpX6O/sy+Pk+I/wT8LawJBJP8AZlt5znnfH8v6gA/jUR3sb1dUmep0tIKWtDnCiiigAooooAKKKKACiiigAooooAKKKKACiiigApKWigDH8UaSNc0C8syMs8Z2/UdK/M79pr4d7o9RjEbIr5kTj7rjNfqP618j/tS+AYpmupFQ4cGRT7MP8azmtLm1J2kd7+xP8UT8UP2f/D81w+/UtKX+y7vccndHgKfxXb+Rr3z0r83/APgn348fwH8bvEHgS7k2WXiCH7XaAnC+fEOQB6lM/l+f6P7ulEHpcmpHlkOopKWtDMKKKKACiiigAooooAKawzmnUlAHw3+2J8O4r6912IRYM6C7iYDjlTn9af8A8EzfHguvDfiXwdNITNps4uI0PQKflP8A7L+Ve3/tPeHRfaPY6j0CB7eT/dbkf1r4l/ZV8QN8K/2vo9Pmk8u01zdaFS2AzN93/wAexWT92Vzpj70D9TaKaGHrTq1OYKKKKACiiigAooooAKKKKACiiigAooooAKKKKACiiigBD3rzj41+GxrnhppAAXjBQ8dj0/WvSKo6vp66pp1xasP9ahUH0OODQNOzufkn8RmufhX8RfD/AIz09GS80HUI5nVON8YYbh+IyK/Wbw3rlr4m0PTtWsnEtnfW8dzDIvIKuoYfoRX5/ftJeAIpJryN4zm4Vgyt09DXtX/BPH4iN4o+C8vhe7mMmpeE7x9Pbf8AeMBJaI/TBZf+AVhH3Zcp0T96PMfVQ6UtIKWtzmCiiigAooooAKKKKACiiigDlviToI8Q+DdTtdu5xEZE4/iXkV+Vnx6hm8I+OdA8W2kTRSWN5FJu6Yw45/Sv15kUSKysMqwwR9a/Oj9r3wFGLXW7DYB5Lts9f7ykfnWc1odFJ62P0F8M61F4j8O6ZqsBBivrWO5XByMOoYfzrVr50/YL8eN44/Zy0COaXzbvR3k0yUk5P7s5XP8AwFh+VfRVVF3RjJWbQtFFFUSFFFFABRRRQAUUUUAFFFFABRRRQAUUUUAFFFFABSGiigD5k/ah8NQ7Z7tTtJHmEY9RzXzl+yL4qbwH+1ouj2/mNZeLLCWKaJcYWWJd6v8AkCPxoorCXxI6o/Az9KBS0UVucoUUUUAFFFFABRRRQAUUUUAI1fK/7Xnh9JLqKaLYsl1b/OSP7uf6UUVMti4fEeX/APBNvxBNpPjL4ieDNoNooi1OIr0VixRh9TkflX3wKKKmnsVU+IWiiitDI//Z;direction=east;" vertex="1" parent="1">
          <mxGeometry x="510" y="1280" width="77.22" height="90" as="geometry" />
        </mxCell>
        <mxCell id="4IGu5WWSZYh_7H1Q3Tkf-70" style="edgeStyle=orthogonalEdgeStyle;rounded=0;orthogonalLoop=1;jettySize=auto;html=1;entryX=0.29;entryY=1.029;entryDx=0;entryDy=0;entryPerimeter=0;strokeWidth=2;strokeColor=#0000FF;exitX=1;exitY=0.5;exitDx=0;exitDy=0;" edge="1" parent="1" source="4IGu5WWSZYh_7H1Q3Tkf-68" target="4IGu5WWSZYh_7H1Q3Tkf-38">
          <mxGeometry relative="1" as="geometry">
            <mxPoint x="800" y="1450" as="sourcePoint" />
          </mxGeometry>
        </mxCell>
        <mxCell id="4IGu5WWSZYh_7H1Q3Tkf-71" value="" style="shape=image;imageAspect=0;aspect=fixed;verticalLabelPosition=bottom;verticalAlign=top;image=data:image/jpeg,/9j/4AAQSkZJRgABAQEASABIAAD/2wBDAAMCAgMCAgMDAwMEAwMEBQgFBQQEBQoHBwYIDAoMDAsKCwsNDhIQDQ4RDgsLEBYQERMUFRUVDA8XGBYUGBIUFRT/2wBDAQMEBAUEBQkFBQkUDQsNFBQUFBQUFBQUFBQUFBQUFBQUFBQUFBQUFBQUFBQUFBQUFBQUFBQUFBQUFBQUFBQUFBT/wAARCAE7AWMDASIAAhEBAxEB/8QAHwAAAQUBAQEBAQEAAAAAAAAAAAECAwQFBgcICQoL/8QAtRAAAgEDAwIEAwUFBAQAAAF9AQIDAAQRBRIhMUEGE1FhByJxFDKBkaEII0KxwRVS0fAkM2JyggkKFhcYGRolJicoKSo0NTY3ODk6Q0RFRkdISUpTVFVWV1hZWmNkZWZnaGlqc3R1dnd4eXqDhIWGh4iJipKTlJWWl5iZmqKjpKWmp6ipqrKztLW2t7i5usLDxMXGx8jJytLT1NXW19jZ2uHi4+Tl5ufo6erx8vP09fb3+Pn6/8QAHwEAAwEBAQEBAQEBAQAAAAAAAAECAwQFBgcICQoL/8QAtREAAgECBAQDBAcFBAQAAQJ3AAECAxEEBSExBhJBUQdhcRMiMoEIFEKRobHBCSMzUvAVYnLRChYkNOEl8RcYGRomJygpKjU2Nzg5OkNERUZHSElKU1RVVldYWVpjZGVmZ2hpanN0dXZ3eHl6goOEhYaHiImKkpOUlZaXmJmaoqOkpaanqKmqsrO0tba3uLm6wsPExcbHyMnK0tPU1dbX2Nna4uPk5ebn6Onq8vP09fb3+Pn6/9oADAMBAAIRAxEAPwD9U6KKKACiiigAooooAKKKKACiiigAooooAKKKKACiiigAooooAKKKKACiiigAooooAKKKKACiiigAooooAKKKKACiiml1XqaAHUVEbiNerClWZG6MKBklFJuHrS0CCiiigAooooAKKKKACiiigAooooAKKKKACiiigAooooAKKKKACiiigAooooAKKKKACiiigAooooAKKKKACiiigAooooAKKKKACiikoAWobi6jt1JY4qrqmrR6fCzMwGBXyn8ev2rbbwys+n6HMl1qAJR5gQUhPp7tntUSkoq7PRwWAr4+qqVCN2fQfi34p6J4StWn1PUraxi7NNIFz9M9fwrwfxh+2t4d0kObGO51BQcCXb5cZP1bn9K+HPGXjDV/FmoPqN/ezTzseWlYsee3sPYCszxBeCbTrOFpRIVXLKvrXnzxTfwo/WMDwVRgk8VK77LQ+qbz9vi68w+TpdqEzxuuGJ/kKt6X+3veiRPO0O2mTPIiuirY/FTXxC8wUEngCi31OKPJZBIMdDWPt59z6l8HZbKOlP8AFn6d+Cf21vBOvSQw6lNcaFLJgK94mYif99c4/wCBYr3nQPF2m+JLOO702+t9QtZPuz2sqyIfoQcV+MWn6qsmFt5MN3hfp+FemfC/4va38M9aivdFumtz/wAtrVmLQzD0Zf69a1pYt7TPjcz4KjFOWFlZ9n/mfrYrBhkU6vFfgT+0Zo3xetDbYGna7AgaewkbO4f34z/Ev6ivaEcMK9KMlJXR+U4jDVcLUdKsrNDqKKKo5QooooAKKKKACiiigAooooAKKKKACiiigAooooAKKKKACiiigAooooAKKKKACiiigAooooAKKKKACiiigAooooAKydY1iLTbd3ZwuBkknpSa1rkGl28jvIqBRksxwBXw1+0p+08b5rrQvD10SjZjkuom+/1BVfb3FZzqRpq7PXy3La2YVlTpr/gGr+0d+1AzC60Lw9KHLbo57xX6diqf418h31091I887bmHQZqrNcOubi4OXPbNZl5qzSqQW/L0rwa051XfY/ofJcno5fSUKS16vuPuNWG1hnHas+OaW5k2wRmQk9RU2k6FLr05JylupyzdvpXodrYW+mwLHbRhFx16k+9JJdz6epVhS0W557caHfLA0k9v5MQGS+Qf0rv9N/Zu8V33w3j8aCzVNKlbESMf3sqjqwHpxV/TZIotStJri2F5bxSCSS3JwJFB5FfVfhnXJNS8INNNrCWvw8vwfNlHMliwH3FHpmuijBVG0z5bNs3xOFUXSirX1v1XZeZ+e1xp81nLK6BlEJ/EVe8O659qnMMoG48q3rXs/wAYvAQu7W61jRbCS2gtGIy8RX+0Ye04PTPrXz9I21lYL5bKc8cGslBJWZ9NhKsMyoc8dz1rwp4pv/DOqWupabdyWeoWsgaCeM8g+h9Qe4Nfpf8As+fGKH4ueCYL+QJDqtv+5vbdDwsgH3h/snqPy7V+UOkX5uIVbPPevdv2ffipcfDHxvpt+rP/AGfO6wX0YOQ8ZOM49R1/Cro13TkovY/PuKMjWMw7qQXvx28/I/UAHNLUNrMs0SMpyrDIqavdP5/as7BRRRQIKKKKACiiigAooooAKKKKACiiigAooooAKKKKACiiigAooooAKKKKACiiigAooooAKKKKACiikJxQAVi+IPEVvo9pLLNKsSIpLMxwAB3NQ+JvE1todlLPNKsUcalmZjgAV8N/HH9oC6+It42iaOzwaYWw7Zw03ufQe3esatWNKPNI+gyjJ8Rm1dUqS06vsV/2mP2lpfEElzo2gTyCwU7ZJozjz/of7v8AOvl2RtpaedsyHnnt7V2+t+A57NftcErXTMCWz2rzHWrh45H83hwcLXhTxH1h+SP6Jy/h+GW0Y06Sv3fcivtRaZiT0HQU3SdJudcutkC5jHLuei1n6Bp974m1jyFJSI8NIOcD1r1bTdOg0ezS2tznaMMxHLH1NXKm4vyPWrVI4Zcl/eH2Nqmn2qQRfKqjkgdfepdp9aeq5qnqGqR6ap53S4+VR1ppRijyYtyehavLuDTNPeadwmRhecEmq3w4+ME3gOa9S7t21PRL8FZdMZ8Kx7Ee9eeazrs91OTcFn7Ku7hR9KxTdMxwCRVcrimz3KWW069JxrK6Z7l4/wD2mdd8YaHHosSQ6ZpVuClvDHGN6RkfcLdxXh0xDdKYJnY4J4p/mRq211wSPvZrFycn7x6mDy6hgYcmHjZM3vDv+prudFk+UA/UfUVxWhw+XGADniu00eM7lxWDSclbY4MdFNSTP1D/AGffF3/CZfCnQL5nLzpAtvMW670G0/y/WvSq+b/2J76Sb4Z3VsVwkF+6r17qp9P6n8O/0eOlfTwfNFM/krNKKw+Nq010bFoooqzygooooAKKKKACiiigAooooAKKKKACiiigAooooAKKKKACiiigAooooAKKKKACiiigAoopCdoyelAATjk1zXirxdaaDYzTTzpDFGpZndsAVB408cWHhfTZ7q8uY7a3jGWkkbAFfBHxq+OWo/E7Wn03TWli0sNhY84MnP3nH16CuerWjSV2fTZJkdfOK6p01aPV9EaPxy/aA1D4gahJo2kFotMZsZDfNN7n0Ge1cJoegRaTH50ozcN94mk0fQo9LQvI26ZuWOO9aE0yx4LNxXxmLxkq7ai9D+ncpyihlNFUKC9X3GyXCruZunpXmPi3wZ/auqrJYL5QkO+UjovrXofkyahMqxDKZ+Y1p3FpDY2EkUQG7b8zY5Nc+FvGfMmfQSqLDxaWrZ5jp+lxaJamG2GM/efHJqxGvStCS1aZiBwc5rJ17VLfw7b/AL1t1w4/doOua+nVnZI+HrQlOemrG6xqsOj2zNI534yFA5NcG+vHVI/tBRoixOFbriqmo6rNfTGeU/vCMH29qz5ZnkHJrOa0sevhsLy2bE1C4WRz+tVlRSu5aGi3dRSrjoKx57Rtc92HuqwzzBnpjmr2l2MdxcrK+SR27VBFafaJl710dparDGFA5I5qJSfLodMpJLQ0LVV3EKMcV12gwnjIrmbSIKUIHPeu00eP/Rg4GWA4X1NRFXPAxkkou59yfsU2LQ/Dm/uCOJ798cf3VUen9fy7/R9eZfs7eEW8H/CfQrSVSk80X2mVT1DOd2D9BivTq+no6QR/Jea1lXx1Wotm2FFFFanlBRRRQAUUUUAFFFFABRRRQAUUUUAFFFFABRRRQAUUUUAFFFFABRRRQAUUUUAFFVry+js4yznFYVr420+61P7Cl3CbrGfJ8wb8euOuKC4wlLVI6RmCjJrifH/xE0/wfpFze3lwsMEK5Zu/0HvVb4lfEax8F6PNeXk6wxIueTyfYDua/Pj4sfGbWPiprxtlkKWKv+6t0PCD+8fU1y1q8aK1PqciyGvm9ZKKtFbs1PjF8ZdV+LGvmGBmg0yF/wB1bg5IP95vUn9KwNJ0uHSIS7DdO3JY9fpUWi6WmkwggZkbqauXchaE44PWvkMViZ1JPsf1BlWU0Msoxo0lZGVrHiZbPcGY5HaqPhvVpPEl48aFlROW3Vy13oF3r2pS7pWWFW+Y54IzXTWaJpNukNr8gXq2OTRDCxlFHu4rE0sIvZx3f4HosKxWcIjhHblveq9whkhdepIrF0nWjJhJWyKta9r0Oj2ZdR5srDhM4/GtPZ+x0PHhUVT4dWzk/EmrR+HrckDzbtuEjHb3NcBcXkWrM51aTL5/dz/3D/hWlrTHU7t7p5P3h4Ix0rFurNpFG1168jNdMZRl1PUw+ChQ1e7Of1C3ks5ir/MrHKyDo1Vd49K3rjSGkVVfCpnr1xWHq9lNpshhcbZOo9CPUVpz8zsgnR1vEq/bDuZSMinWtv8AaSc9BVSzge6fAG011Gn2HlxjdzitJuMFYltU1puO0y1EKA9a1YV3cAc5qCCE7j2Fa1jEMgdc9aydmclWoo6ss6bbM8gA54r2n4HfDO6+JXjSy0m33LbwstxezY4jjB6fU9BXBeD/AAtfeItWtdO022a71G5bZDbxryf9onsB1r9IfgP8HLX4R+EktW23GsXOJL27xyzf3R/siurC0HUak9j8s4qz6OCoulTfvy09PM9Kt4Vt4UjQYVAFA9hUtJS175/Pbd3cKKKKBBRRRQAUUUUAFFFFABRRRQAUUUUAFFFFABRRRQAUUUUAFFFFABRRRQAVUvtQjs42LHnFWm6GvD/2jr7xNY+G86IkiQyNsurmFd0kKEdQPT1Pak9jooUvbVI072ucH+0V+0bF4Xt5tM0i5STU2BEkincIR/8AFe1fEN94o1XWvEQ1pdQuba8iffDeQyskytn7wYHNWfGmi61a6rL9uhkjhVi+58kOP7wbvWDDIrnCfdrxq9eS1P6I4fyGjhKSULTct2dd4k+JGveOVhXX9ZutQvowFWeRuoHHK9Pxq34f0y2sbMzKyyS55Irl7S1QEsRkkVq2d0bdXjDbSw+WvFqVpVpcqP1DB5TRwcP3aUV9xs3niG2tflkbY3pVvQJBrk7FGBgXq1eU2WganrWrXFveTLFEr7izHBZevAr0GyvE0W3htrP93FGMZ/vH1NP6pd2Lx2LoYZ+xh8R0+s21vaQ4gAA78frXKS/NntzV+TVDfdeuOawvEGuW3h+0Msz/AL1uETHU1304OCsfN4mo6rUYasbq2vQ+HbVpHO6Vh8qA4P1rhf8AhKbq6upDNIWRj8oJ6ViarrEuoXL3FwTlj0z90Vj3V+Gx5Z7050+Y78BTdF83U75bxXHHNNjtnuptsSF2PYVzOj62LMRyTZMOcEitPUPH1zGrQ2B+zxMOW71xewqOVoK3mfURaqq5vfYLPTVMuqXyqy8i2HJNYeva63iDy4oo0jtYDiNFHIH1rn3hk1N/MH7yQ8s5PNa+maScpGg3S49OlaRp01719TGtUp8tojLGykmlwiM5Aydo6D1rUjQKMdhW/ptkNNXKsPMYYcj+Kq15aiW4+Qck07pys3dHz/1hSnyle3ty23nGa6zwr4XvNa1S00/TrSS/1G6cJDBEuSSe59B3qpo+izXFxbW8ET3N3cOsMFvGuXlcnAUD1zX6Ffsx/s4x/CrT21rW9tz4qvEw5BDJaRnny0Pr6nvXRQoSqT8j4jiPPqWV0W73m9l/XQ3f2efgLZ/CLw+JrtI7rxJdDddXm3O3/YT0A/WvYlGKBxQc19DGKgrI/nDFYmri6sq1Z3kxaKTmlqjlCiiigAooooAKKKKACiiigAooooAKKKKACiiigAooooAKKKKACiiigAooooAKhntUmUhlDAjBBqaigD5K/ak+D1pHpjapaQSLp7yAXMEK5EDHgTKOwz94Dsc+tfHepeCZfDOr+TeFXsphmK8jGYy390+lfrB4k0KDXNNuLS4jEsMyNG6HupGCK+G/jd8Nb74atJBJD9s0KU/6NcsMhRniNz2Ydj3rzsVh+eOh+ucHcSVcJUjhpu66f13PnPUphpMy25ybiThEUc5qzp2jvZyPd3beZO3ROwFbEtpFNItxHDGzxj93IR8y+1Z73JldgxIcHlT2rxqdBc3mfu+NzV4imlDRMzdQ0s3UyXFvJ5F2h+Vj0I9DV9be4e3DyqBKMb40OdvvUsMPnMFxx1rNXxdo9rrSW9zdyJHH8nnxc49m9q74rl2PmpVKlZcsNbB4i8VW/g2xMjhZrhhiNPf39K8W1LWrrVryS9uJGeRj90nIX6V2fxM8N3V5ey65Ylp9I+6ysfmgPr7g9ciuAj/dsTj8jRJJbHtYCjCnT5nrJ/gPN28igN0qzbxCOIuByaigYKxJ4yMU+X95jFJPmsj14pzdhZZFaM460Wtm9yuYhux1ptrbfaLhVx1Nd/oPh5ViDyDbCOvH3jWNWbpKyOly+ropaTpLraIT8pPWuo0+zjtYRsO5mHzN/SoZNqDYo2qOg9KgtwwYqBnJrgkpS12PGqzlV62NCWUNlO9WLe3S2hE0mWLYCKBlnJ7AetMtbeO1ja4uXWOMevf2HrX2d+yX+zJC9rZePfGWnuNRZvM0rTLj7ttGPuyuvdz1APTjv06sPRnUdonyuc5th8pwzqVN+i6tnU/su/syweC7e08X+I4fP8SXEIaC2lT5bBG5AA/v4xk/hX00oxSKu0YpTmvpIRUFyo/mrH46tmNeWIru7f4eSFopBmlqzzwooooAKKKKACiiigAooooAKKKKACiiigAooooAKKKKACiiigAooooAKKKKACiiigAoopGYKMk4oARyApJ6V4/+0DqWnv8ADvxDa3CJP51nKiR4yWfacY9wefwrofih8TtL8B+H7zUtRuktrS3Qs8jH26D1PtXyJ4Z+IWofF6717x34nvm8N/C+0VrS0jlBW5v3BJPlLnkngE9hSlHmizvwMlDEQnLZNHM+DdH8JeH/AAjNqFzq0d7oPk7JbmUjz45RyRj61ytm2n/Eaxe30qOOLV7eQpYyMQgvo88JJkY3CugbwBeftUeKbiXwL4ej0TQLGJbYXV05WNWGOSB99yK4nxl8IfFXwd8RDT9WUeep3wzQ5CTKP4kPqO/pXzcKdSnzS3P6Pp47BVockqv76ST5brTydtPU4P4peIrnw3NN4eaCaw1WMf6TFKhVovp659RXkazSxqyl927qa+l/iLpcnxy8O2Uk7eX4o0yPyoLlkAM8Y6RyepHY180XlrcWF1NaXUTQ3ELFHRxgqR2rqjNSPrMp5ZULNWl1NrTfEtxHp7adNKzWrjYdx6D0+lY0lv8AZ2KL8yZ+Vh0IpsKlmUCtG3WGN/KuV3Wz8H1U+opytuz3fZxW25TjbHGKvQW/2hQFGD3ptxpLw3i5lFxAwysy9CPT612+g+GYY4orycbbccj/AGvavPrVPZO5P8L3iDw74XWFRd3af6MOV9XPpiugurozY4CxqMKo6Cm3l8ZmBxtjH3UHYVUJ8zmsHN1Ups82tUdd67D2Uzfdq/Y24tYWmnIWNRkmnWNqkUJmncRxqNxZulfS37LP7Nd78RNS03xr4jhew8L2cvnWOmzRgvqDL0kf0iB5A/i+nXoo05VJcsT5vNs0w+VYd1az0Wy6t9kb/wCyb+zbf6xqkHjfxjpiW+lRqG0jTLkbnkb/AJ7yL2/2Qee9fbaIFUADAFNiiWONVVQqqMBQMACpa+kp0o0Y8sT+Z80zOvmuIdet8l0SCiiitTyAooooAKKKKACiiigAooooAKKKKACiiigAooooAKKKKACiiigAooooAKKKKACiiigAoopGYKpJ4FAAzBRknArg/iV8RdO8F6Dd6he3SW1tboWd2YD8B70z4lfErTPBei3V7fXcdrbwqWZ3bH4D1NfJV5p8vxfkm+IPxMluNI+GWnM0lhpMjNE+oMPuErnLEn8KqwGPcapF8ary/wDH/wASnuNN+Fukkrp2mqxQ6jPn5Qf7zEenA/Wsvwz4Y8TftneOrWCO2Xw38PtCHlRJbDEdrHxiNR0eVgOT2qHwj4d8V/tneOks1DaB8OtHfbFDbx7YLWIHiNBnDykdT2zX6C+BfAeifDrw7a6JoNjHYafbrhUQcse7Mf4mPcmiTvp0O1SWHXMvif4DfAfgPR/hz4ZstB0O0W00+1Taijkse7Me7HqTWT8VPhfpfxP8OzaXqcZGQWhuI+JIHxw6n1/n0Nd1SMMis3FNWOeFWcJqpF69z8xfHvg3xH8IfFU2l3sardKC9vcKP3N7Fn7w9D0yvY+owT5V8UPBI8W248QWEPk3xT9/FnqR1z/jX6pfFb4VaJ8UfDsumaxBn+KC6jO2a3kxw6N2I/I9DxX52fFLwlrHwp8WPoOoXcbyom6O6j4S4iJwrkdm4OR6jv1rxMRQlRkqkHof0NwfxHSxyWHqq1Vfiv8AM+YIdsMLZBDqcEGmG8aYY+6K73xZ4Pe4tpNRsLOSSBXPn3Kj5d3pisXw54VfUZHnnVrayiOHmZevtisfbQSvI/ZMOo1F7S+iNfwHaRT2rpqFsJ7BcyZZsEN7Vt6jqAYqeFgX5YkHQCqd5cxW8CwQL5NtH92Ne/1qta3iXX7mcYQ/db0rkUOdub6nn4mom3y7FhpDNgjp2rU06x8zEknEY5yTgeuTTNN03byxXy153Z4GK9z/AGc/2ebn46av/aGpx3Fp4JspAJHGUOouP4EP9wdyPpWtOi6klGKPlcxzOjl9F16srRX9WXmW/wBmj9m8/Ha8Gu675lv4Hs3xDFGCr6jKp5Ge0Y7kdenrX6JafYw6fZw20EaxQQosaIowFUDAH5VV0HQ7Hw5pdtpum2sVlY2yCOKCFQqoo7ACtNelfRUaKoxsj+a86zmvnGIdSo/dXwrsv8+4tFFFbnzwUUUUAFFFFABRRRQAUUUUAFFFFABRRRQAUUUUAFFFFABRRRQAUUUUAFFFFABRRRQAUUUySRY1yxwKAFZgqkk4FeefEz4paX4I0e4vL+7jtbeMcs7YyfQe9R/FP4pad4G0Oe9vLjy40GFVeWduwUDqa+SW1ofE6G5+IPj2JrXwVZybdL02RsfbJgeUx/EeDz2rSMeYB5jufjNe/wDCzvGWpJpPw10md0t9InyJL1lxghe5Jxj0rA02w8W/ts/EZIYEbR/h/pDiLdHkRwRDoiDo0hA59Kfpfh/xN+2Z48S3sbQ+E/AGlqsUkcGPKiUfwJjGZDz9K+9/AvgfR/h34YsdB0OzjstOtECIiDBY92Y92PUmnOVvdRrF8mvUPA3gXRvh34astC0KyjsdOtU2pGg6nuxPdj1JroaKKyMgpCwUZPAoZgoyeK4b4kfEbTvBOhXmoX11Ha2ltGXklc4CgUAVvil8TtK+H+gXep6ndpa2duhZ5GP6fWvjTWvD0f7UFjc+OrzVF8OeGbcFDdXI/eMq52pGO5PP0zUOreJrb9oaO48beMZrrTPh5pc+zR9EVf32u3H/AMR0/Oul8GfDzWvj5rEYmtV8PaDaKqJYWfFvZJ/dUfxOe/41lUpqorM9/K8wnldZV6LtLv2PC/GvxDsPEXhzT9D0aCPS9M0v92tug+e5YHHmv7nGfxri9djvWtbZi6yWhHy7Rg7sdxX6X+OP2X/BXjDwWmjHTIrC6hiC2+p28aieJh3zjkE9QeDXwV8Uvh/rnwf8QTeHtfg8+3lJa0vkBEd0nZlPZhxle30wT4FXCyptX1R+98OcT4TMU8PTXJLez692jxe6leSTaOQKktI23jA5xWre6KCWlhOQOoxTtNsXmX5TgDqalJxVkfautFx5mehfBDwzpPjf4maFoXia7a00O6kCsi5/0mQEbYiewY1+qPh/R9P8P6Xb6fplrDZWNuoSKCBQqKPQAV+T3hvwzqXiDVLTRdFge91m7I8iKNTuj6fvDjoB1zX6nfD3R9Y0TwjpNjrt9HqWrW9tHHc3cUZQSuFALYJPJI69/QdK9bB35Xofg3Hk1OvTcanT4e3n8zp6cKbTq9A/KRaKKKACiiigAooooAKKKKACiiigAooooAKKKKACiiigAooooAKKKKACiiigAooooAKKKjmmWGMsxwBQATTLBGWY4FeGfHz9oLTPhbo/mSyLNqE+UtbRSQZG9zjgDuam+O3x30v4baJLLPL5t2ysLe0j5eRvp6e9fI/w7+H+v/HrxgvjvxXK2neEbd2ku7m8PlrsX/lmvsRx+tXGNwO2+CesS/Gz4hz6/wCLbyG4sNBge5mjVisMXHAQE/metZVvpWv/ALXfxVl06zf+x/A+ly7pDEoVII84xGvTzHwef8KxfiV400vxVNH4R+GXh5NP0WN/LgjtUImvHPdj1YZ7E19U/sl/BnUvhH4HuhrKrFq+pTefPCpyIgBhVz69fzpt22LStG/U9U8A/D/Rvht4ZtNB0G0Wz062XCr1Zj3Zj3Y9zXS0gpazICkJCjJ6UE45Nch468cWPhfSbm6u7mO2ghQvJLIwVVUDJJNAEHxC8f2HhHRru9u7mO2treMySSucBQBk18aeItY1L43afceL/GVjJa/CuGQpp2mxTFLnVZgcAuM8J3A/OtPWNbu/iprzeJfE9xHYfDyyBm07TZT+81aVScEjP3TwQD25qfwJ4D1r42eLmvXVtO03duljtzi3tE7Ii9N5Ht71pawdbFL4c/DjVfi94gt7aBRZ6TpyCJXQYjsIc5EaDoXI7/jX2z4R8H6Z4L0S30vS7cW9rCOmclm7sT3Jp3hTwrpvg/R4NN0u2W2tYRgBRyx7knuT61tVDAQqCMYrgvix8H/D/wAXPDc2j69aCeI/NDMvEsEmOHRuxH69DXfUlS0pKzNqNadCaqU3ZrZo/Kr4w/AXxP8AA3Wmhu7e41bQZDm21eCEsjD+7KBnYw9+D2rE8CeEbzxxrlrpPh61a81G5cAMqEpCD1eTHQCv1lvtMt9QhaK4hjmibhkkUMD9QaraT4a0vRGkbT9OtbFpOXNvAse764HNcDwcXJu+h+i0+NsRHDeynC8+/wCtjzj4F/s9aF8GdMEsSLf+IriMLeapIDuf/ZQH7i+wr1pVxRtp1d0YqK5UfnuIxFXFVHVrSvJhRRRVHMFFFFABRRRQAUUUUAFFFFABRRRQAUUUUAFFFFABRRRQAUUUUAFFFFABRRRQAUUU1mCKSTgUADOEUknAryT44/GTS/hl4YutSvp1VUUiOIMN0rY4VR61pfFb4pWPgfRJrudy7fchgj5knkPREHcmvnq/8J3gv/8AhanxbSIaJYRb9H8PxuWaWZvuq6H+LH+cVSQHEaj8C/GfxGvPD/jK6ubG40nWIzqGqXFw+xrS3zlYoz/Edvt61k/FH4mv8Rjpfgbwjby23hG2kS2tLBRiW5kBwGf2zzW1Fqvi/wDaW8fWunWELadp2wB7S1bFtYW+ed2MAsf1NfUvwl/Zp8K/Cm+fUraOTUNXbhby6OWjHoo6D61fNYDC/Z0/ZptfhXH/AG1qri88QzpwuP3dqD1VfVv9qvelULQo2jFLWQBSFgvXimySLEpZjgV5j8VvjRovw50eW91O9S3iUHaucvIQOir1JoA6Hx546sfCOj3N7eXCW9tAheSRjgAAV8c+OvFE3xMdPEXip7jTvAizGGy0sDE9/ICdsjDqFP8Ad/Oty+8eQfETw3Z+PvF6zWPhSK5J03QSB5t9KPuNJ6D26D3qDwf4K8Q/tCeLhqV/CumaZb/Inkr+6tYv+eaDoXPet0uXViuUPAngHWPjr4uMrYt9NsVSITIMRW0Q6RoOhcjr6V9q+FfCeneD9FttL0yBbe1gXaFHUnuSe5NHhLwlpvgzRbfS9KtltrSEYCr1J7sT3J9a26xuMSloopAFFFFABRRRQAUUUUAFFFFABRRRQAUUUUAFFFFABRRRQAUUUUAFFFFABRRRQAUUUUAFFFFABRRRQAUUUjNtGTQAjMFUk9K8/wDiV8TNM8F6Pc3d/dR28ManlmGWPZQO5PYUnxQ+KGleAdCudQ1O8S1tohjcx5ZuyqO5PYCvl/xN4Vj+KV3Y+OviNqd14f8ABFmy3On6SDte9lBJQMPU+nbNaRjcDQ0i1u9W1K8+KvxOjuNK0bSXM2iaPIfmnHOxgmeWIrjLjVPGv7VnjeGCGP7NDGSUgGfIsICeHf1f9fSs+9l8V/tL/FCK3gTYiBktbfP+j6fb5xvbHfGPqeK+4vhX8LdH+FXhqLS9LiBkOGubpl+ed+7H29B2FXJqKsAvwr+F+kfCnwxDpGlx5bhri6YfvLiTuzH+Q7V2dFFYAFRzTLCpZjgU5mCqSeBXi/7QXxhh+GnhC81LAmmUbIYdwG9z0H0p76AWvjJ8ZtN8A6HcXVzOAwUiKFeXlbHCgV8ZeCNP1r44a/q/jzxfcpY6RYM0f2G+PyJCeqRj+InHXrmnfDmTxD8Tr668QeP5haaWqNcPPOu0NGOkcA9T7Vstpmo/E7xXoWnaFa+RYRZWw01Pl+XvLMf1zWqXLuBt/bdQ+KMmkeFdE0Zl0qwfy9MtwCGSPPMkh7DHevtvwr4Zs/Cui2unWcEcEUKAERjq2OSfU1zXwh+E9n8MtJYblu9XugDd3gXG4/3V9FHpXoNRKVwEFLRRUAFFFFABRRRQAUUUUAFFFFABRRRQAUUUUAFFFFABRRRQAUUUUAFFFFABRRRQAUUUUAFFFFABRRRQAUUUhOOTQAFgoyeBXCfEz4kab4H0C71G+ult7a3Qs7k/oPUn0qx4/wDH1h4T0e5u7u6jtoIVLPI7AAe31r5/02P/AITL+0viB8TbY2HgnSzu0zRrkHzJ3BBWZ1yMk/wr71cY3Ay7iwsfiHpVr8TviRcy2Hg62cvpvh8grLK4PySSL3Y9gOgrhdavfEP7Sfj2ys9Otdum2+I7S1HywWUPZ2A/ixj+VGuax4h/aU8drp+m28kGnhgbKxjG2K2jHHmyds4/wr7I+Evwp0v4WeG4rCzUTXjgNdXjD55n/oB2FaSly6E2H/Cz4V6P8K/D8enabHunYBrq7YfPO/8AePt6DtXbUtFYt3KCms4jUljgUSSCNSxOBXmPxY+LWl+A9DuL2+uRHGgwqrkvI3ZVA5JPoKQFj4pfFDT/AARodxe3c4jiQYCjlnY8BVHck18m+MPEh8QNa+IPHehrdyTOw0bwu7nzVHaeTHHpx6VR8TeJr3WNTsfFvi3zFuJdx0Pwz95onPSeYenfmtT4bfD/AF34u+Mi91ePdXkYH27WSnywR/8APOP39K1S5dxXfQpaN4J8U/GzUF0s7bi3iKurJ+6trLHRRjrj0xX1/wDCn4N6R8L7D/Ry17qkqgT30w+dv9lf7qj0FdL4R8I6b4N0iHT9Mt1ggjHJ/idu7Me5NbtQ5XBCUtFFSMKKKKACiiigAooooAKKKKACiiigAooooAKKKKACiiigAooooAKKKKACiiigAooooAKKKKACiiigAoopCcdaADpXH+PPHun+EdJubu9uo7a3hQtJLI2ABTvHXjmx8J6Tc3d3cx21vCpaSWRsBRXzdba9Z/E6wuPiP4qaa28AaNcH7Jpc0ZD6lIMYkZT1UH7o79auMbiLdvbp8Qrqx+IfjidtP8AW5NxYadMdv2hlPySSL3JI4WvLfHHiDxF+0n8TY4NBimfT0IjtLBvlhiQcedJ2H/16d4p8V+J/2mvFtjoGk2S2ugxSBrPTYl2pEoGPMl9CAa+w/hB8HdJ+FGgR2lqguNQkAa6vXUb5H78+g7VTlbYESfB/4T6f8KfDMdhbYnvpcPdXhXDSPjp/ujsK76iis9xhTJJBGpZjgUSSCNSzHAryX4yfGbS/h5o8lzdzfO3yQwIfnlbsFFAFz4rfFrS/AukS3F7crH2SMHLyN/dUdSa+RdS8dSahrn/CUeJLP7bq84K6F4fm5WBT/wAt5F7H61qeObxdK16HWPFwOueMriNbnQNJtZD9ktFIyGmU9TyO3NR/DH4a6/8AFbxNdXtwyNql24Oqaoq/JCufuR+nHYVSFcj+F/wz1v4keIpIHlmurmRt1/rDcpboedi++OABX294N8G6b4H0ODTNMhEUEYALfxOf7zHuaf4N8G6b4H0K30vTIRFBEOWP3nbuxPqa3qlsBq06iikMKKKKACiiigAooooAKKKKACiiigAooooAKKKKACiiigAooooAKKKKACiiigAooooAKKKKACiiigAoopOnWgArl/G3jOx8L6Tc3l3cx21vAheSWRgqqB3JpfGHjKy8OadPcXNxHbwxKWeSRgqqB6k189agv/CztOuvGPjGaTSfAGnyeZaWc3yNqDLgq7r3Un7q+nNUkIztVuLT4oaVJ418dzNpnw1tn3WOmsSlxqUgYFXcf3Mjhe/WvM/EHiLxH+0V4r0/Q9HsmsNIt22WOl2/yRJGDxK/uB3NP1XXvEn7R3jSGytLLGlW522OnxLsjRRwHYdgK+xfhB8JdP8AhZoIgiVZtTnAa7uscuf7o/2RWnwi3D4P/B/SvhXoMdvbxJNqcgzdXxB3yt+PQe1eg0DpS1kUFMllWFSzHAokkWJSzHAryX4yfGPS/h/oM95e3IQD5I41OXlc9FUdyaQB8Y/jJp3w/wBDnuriQvJgrDbx8vM+OFUDvXx54g1m/wBYuoPEnimAv4mvW36RpbMGS0jB4Z09ffvWt4w1aQ/ZvFOuTSSeNbg7tL0NTuS2iPKtIv8Aewc0fB/4V6r8QvFE8bSS3F7IfM1DVpWLiDP8K+/oK3slERofD34X6z8T/Ekhedrm+lIa/wBUccQLx8if4V9teCfBOl+A9Dg0vSoBDBGBuY/ekbuzHuTTfA/gnTPAeg2+laZD5cMQ+Z25eRu7Me5JroqxYBRRRSGFFFFABRRRQAUUUUAFFFFABRRRQAUUUUAFFFFABRRRQAUUUUAFFFFABRRRQAUUUUAFFFFABRRRQAUUUlAATiuV8aeNLPwzps9xc3CQQxKWeR2ACj3NS+LvF1p4d06e4uJ0hiiQu8jHAUAcmvne/wBX074nWOp614yjudN8D2432SuxjOpMD1x/d9B3q4xuK5Hqlre/EW/TxX4vnGifC/T1+1orybZNSdTlQy/3OOB3rybxV4i8RftLfEWDT9NlmPhxnC6Zpv3I0VePMfHbFR6p4h8S/tPa5ZeHYLRrXw9ZuBY6fEMKyDgSS+wFfZvwi+D+lfC3Q4oLeJJtRZAJ7vbgn/ZX0X2q+bl2Encb8IfhDp3wt0RIY9tzqcij7Td4+8f7q+ij0r0Ok206sm7lBTJJFiUsxwKJJFiUsxwBXlHxj+L9h4B0KW7nZpGzsigi5eVzwFA9zQBB8aPjNpnw90WS5u5wGY+XDCv35XOcKo7k18n6nqz3niSz8T+Lrd73xDNmTSdCc5htI+dssg/vDOea0/GkOoWPiCx8U+Njb3etXI83QdDVt8VmOolmHdh9Ks/Dv4Z6t8UvEshMzzySt5l/qnaIH+Fff0FactiblH4ZfC3VvH3iS6isWa4vp5fO1PWLjkRK3Zff0A9K+4fBPgjS/Aeix6ZpcHlQr8zufvSNjlmPcmneCfBemeBdBt9K0uBYYY1G5sfNI3dmPcmugqG7jQlLRRUjCiiigAooooAKKKKACiiigAooooAKKKKACiiigAooooAKKKKACiiigAooooAKKKKACiiigAooooAKKKKAErmfGHjCz8N6dPcXE6QQwoXkkdsBQBkkmpvFXiq08P6dcXFxOkEUKF5JHYAKoGSSa+Y7fUh8eJ7vxLr1y2j/AAo0xywaQ7H1hlz0/wCmX/oVUkBDrer33xm06TxdJeLpnw20qUyPJdAqdTZCeF55izj615nrHirxH+034otdF06FodBtnC2tvartTaP4mHYVZ8Ua9q/7VHjSDQfDCyad4K09hDBZQLsSRV43tjtivsT4Q/B/R/hRoKWenxBrqRV8+4I+ZiB0HoPaqu4k7i/CL4R6b8MNBht4Y1l1AoBPdEZJPoD2Ar0CilqNygpksqwoWY4AollWFCzHAFeSfGD4yaf4F03dLIZLiVhFb2sfMk8h4CqO9ICT4vfGDTfAukvLcS7ppDsgt4+ZJXPQKK+YNW1e80PV5vFfi6SDWPFUw36H4fhk3w6ch6STjHLj0NO1nVJtG8RT61r17DqfjK7h/wBD01csukIQOSP73vUvwj+D+ofE7VJZRcyi283dfanIMtISclVNbWUdxPsR/Cv4X6x8YPFV1qWozSXMszhrvVJuVUf3Ix6+wr7Z8H+D9N8FaLBpumW6wQRjkgcu3die5NTeGfDFh4U0e307ToBBbQqFAHU+pJ7mtes27gkFFFFSMKKKKACiiigAooooAKKKKACiiigAooooAKKKKACiiigAooooAKKKKACiiigAooooAKKKKACiiigAooooAKKKKAPlDUr5fjBb3eva/dtpPwwsHJeRyUbVmXPyLz/qsj/gX0rxjWvF2s/tIeJrXw5oNg+m+FbF/KstMtBtjKA43NjtXQ/tmXUun+KtK8NWrm20GC1Ty7CH5Yl/AV7Z+x74a0ux8EvfQWUUd4z7DNjLbcDitVJx2Juei/CH4R6Z8L9BS2tYIxeSKDPMqAEnuM+ma9DUbaBS1mMKZLKsKFmOAKfXM+LLiSO1fa5XikM4L4zfGjT/AAHpLu5a4u5DstrOHmWd+yqP84r5c1DVbiz1SPxZ4mlju/Gsyk6XpROYdLUj7zD+/wB8103hknxB8T/Hupal/pt7o8W2wkm+YW2UBOxegOe+M15t4eto9d8VLPfr9qmuZwJXcnLfNWukVcnmPRvhH8HdQ+J+sTX97NK0Er77/U3B3TH+4h/zivs3w14a0/wppMGm6Zax2lpCMLHGoA+p9zSeF9KtNG0WztLG3S2to41CRxjAHFa9Zt3Gu4UUUUhhRRRQAUUUUAFFFFABRRRQAUUUUAFFFFABRRRQAUUUUAFFFFABRRRQAUUUUAFFFFABRRRQAUUUUAFFFFABRRRQAUUUUAf/2Q==;" vertex="1" parent="1">
          <mxGeometry x="930" y="1280" width="95.79" height="85" as="geometry" />
        </mxCell>
        <mxCell id="4IGu5WWSZYh_7H1Q3Tkf-74" value="&lt;font style=&quot;font-size: 20px;&quot;&gt;External LED&lt;br&gt;&lt;/font&gt;" style="text;html=1;align=center;verticalAlign=middle;resizable=0;points=[];autosize=1;strokeColor=none;fillColor=none;" vertex="1" parent="1">
          <mxGeometry x="885.79" y="1380" width="140" height="40" as="geometry" />
        </mxCell>
        <mxCell id="4IGu5WWSZYh_7H1Q3Tkf-76" value="&lt;font style=&quot;font-size: 20px;&quot;&gt;WLAN Router&lt;br&gt;&lt;/font&gt;" style="text;html=1;align=center;verticalAlign=middle;resizable=0;points=[];autosize=1;strokeColor=none;fillColor=none;" vertex="1" parent="1">
          <mxGeometry x="1070" y="930" width="150" height="40" as="geometry" />
        </mxCell>
        <mxCell id="4IGu5WWSZYh_7H1Q3Tkf-77" value="" style="shape=image;html=1;verticalAlign=top;verticalLabelPosition=bottom;labelBackgroundColor=#ffffff;imageAspect=0;aspect=fixed;image=https://cdn1.iconfinder.com/data/icons/computer-hardware-line-vol-1/52/device__wifi__signal__wireless__connection__internet__router-128.png;imageBackground=#FFFF99;" vertex="1" parent="1">
          <mxGeometry x="1070" y="770" width="128" height="128" as="geometry" />
        </mxCell>
      </root>
    </mxGraphModel>
  </diagram>
</mxfile>
